<svg width="24" height="24" viewBox="0 0 24 24" fill="none" xmlns="http://www.w3.org/2000/svg">
<path d="M23.1872 19.9288C15.7097 18.1879 8.23223 22.0601 0.754781 20.3192C0.337922 20.2226 0 19.7858 0 19.3693V4.63065C0 4.21356 0.337922 3.9745 0.754734 4.07111C8.23223 5.812 15.7097 1.9398 23.1872 3.68069C23.604 3.7773 23.9419 4.21408 23.9419 4.63065V19.3693C23.942 19.7864 23.604 20.0254 23.1872 19.9288Z" fill="#E8E8E8"/>
<path d="M11.971 16.3146C14.3539 16.3146 16.2857 14.3828 16.2857 11.9998C16.2857 9.61684 14.3539 7.68506 11.971 7.68506C9.588 7.68506 7.65622 9.61684 7.65622 11.9998C7.65622 14.3828 9.588 16.3146 11.971 16.3146Z" fill="#FF473E"/>
</svg>
