<svg width="33" height="34" viewBox="0 0 33 34" fill="none" xmlns="http://www.w3.org/2000/svg">
<path d="M17.7164 18.326C17.4839 18.8027 17.0715 19.1676 16.5699 19.3403C16.0684 19.513 15.5188 19.4793 15.0421 19.2468C14.5653 19.0143 14.2005 18.6019 14.0278 18.1004C13.8551 17.5988 13.8887 17.0492 14.1212 16.5725C14.3537 16.0957 14.7661 15.7309 15.2677 15.5582C15.7692 15.3855 16.3188 15.4191 16.7955 15.6516C17.2723 15.8842 17.6371 16.2966 17.8098 16.7981C17.9825 17.2996 17.9489 17.8492 17.7164 18.326Z" stroke="white" stroke-opacity="0.15" stroke-width="1.5" stroke-linecap="round" stroke-linejoin="round"/>
<path d="M13.4692 22.4717C13.2843 22.5893 13.0892 22.7025 12.884 22.8116C10.9152 23.8507 8.82234 24.006 7.47949 23.3466L8.11768 21.3492L6.09392 20.7582C6.2945 19.284 7.66043 17.6126 9.62873 16.5721C8.11505 15.0517 7.37328 13.1668 7.58842 11.7174L9.6683 11.696L9.61807 9.59536C11.072 9.32207 13.2212 10.2513 14.7959 11.7881C15.8497 9.62738 17.5267 8.07548 18.9894 7.82089L19.645 9.80954L21.6148 9.10137C22.3155 10.4111 22.135 12.6929 21.0703 14.8483C23.2513 15.1444 25.3071 16.265 25.9869 17.579L24.3016 18.8331L25.5643 20.4848C24.5551 21.5458 22.613 22.1217 20.4821 21.8668C20.8745 24.0575 20.3984 26.1629 19.3601 27.2286L17.6485 25.9977L16.4674 27.7303C15.1211 27.0781 13.9549 25.3333 13.5617 23.1421C13.5214 22.9201 13.4905 22.6964 13.4692 22.4717Z" stroke="white" stroke-opacity="1" stroke-width="1.5" stroke-linecap="round" stroke-linejoin="round"/>
</svg>
