<svg width="25" height="24" viewBox="0 0 25 24" fill="none" xmlns="http://www.w3.org/2000/svg">
<path d="M14.046 12.5C14.046 13.0304 13.8353 13.5391 13.4602 13.9142C13.0852 14.2893 12.5765 14.5 12.046 14.5C11.5156 14.5 11.0069 14.2893 10.6318 13.9142C10.2567 13.5391 10.046 13.0304 10.046 12.5C10.046 11.9696 10.2567 11.4609 10.6318 11.0858C11.0069 10.7107 11.5156 10.5 12.046 10.5C12.5765 10.5 13.0852 10.7107 13.4602 11.0858C13.8353 11.4609 14.046 11.9696 14.046 12.5Z" stroke="white" stroke-opacity="1" stroke-width="2" stroke-linecap="round" stroke-linejoin="round"/>
<path d="M12.046 18.088C11.9314 18.2747 11.8057 18.462 11.669 18.65C10.355 20.447 8.54202 21.504 7.04602 21.5L6.74402 19.425L4.66602 19.781C4.20002 18.368 4.69502 16.267 6.00802 14.469C3.98102 13.766 2.48802 12.397 2.04602 11L3.90602 10.069L2.94002 8.203C4.12702 7.32 6.46602 7.213 8.55502 7.904C8.55502 5.5 9.38202 3.37 10.585 2.5L12.046 4L13.506 2.5C14.71 3.37 15.548 5.5 15.536 7.904C17.626 7.214 19.965 7.32 21.152 8.203L20.187 10.069L22.046 11C21.604 12.396 20.111 13.765 18.084 14.47C19.397 16.267 19.892 18.368 19.426 19.781L17.348 19.425L17.046 21.5C15.55 21.504 13.737 20.447 12.423 18.65C12.2895 18.4681 12.1637 18.2806 12.046 18.088Z" stroke="white" stroke-opacity="1" stroke-width="2" stroke-linecap="round" stroke-linejoin="round"/>
</svg>
