<svg width="20" height="20" viewBox="0 0 20 20" fill="none" xmlns="http://www.w3.org/2000/svg">
<path d="M6.25 5.25H5.4375C5.22201 5.25 5.01535 5.1644 4.86298 5.01202C4.7106 4.85965 4.625 4.65299 4.625 4.4375C4.625 4.22201 4.7106 4.01535 4.86298 3.86298C5.01535 3.7106 5.22201 3.625 5.4375 3.625H14.375V2.8125C14.375 2.59701 14.2894 2.39035 14.137 2.23798C13.9847 2.0856 13.778 2 13.5625 2H4.625C4.19402 2 3.7807 2.1712 3.47595 2.47595C3.1712 2.7807 3 3.19402 3 3.625V16.625C3 17.5188 3.73125 18.25 4.625 18.25H14.375C14.806 18.25 15.2193 18.0788 15.524 17.774C15.8288 17.4693 16 17.056 16 16.625V6.0625C16 5.84701 15.9144 5.64035 15.762 5.48798C15.6097 5.3356 15.403 5.25 15.1875 5.25H9.5V11.75L7.875 10.125L6.25 11.75V5.25Z" fill="white"/>
</svg>
