<svg width="24" height="24" viewBox="0 0 24 24" fill="none" xmlns="http://www.w3.org/2000/svg">
<path d="M10.2 18.4285C10.2 19.5646 9.79322 20.4856 8.65717 20.4856H5.05717C3.00003 20.4856 3.00003 13.2856 5.05717 13.2856H8.65717C9.79322 13.2856 10.2 14.2067 10.2 15.3428V18.4285Z" fill="#553788"/>
<path d="M19.9714 19.4571H19.4571V14.3142H19.9714C20.1078 14.3142 20.2386 14.26 20.3351 14.1636C20.4315 14.0671 20.4857 13.9363 20.4857 13.7999C20.4857 13.6635 20.4315 13.5327 20.3351 13.4363C20.2386 13.3398 20.1078 13.2856 19.9714 13.2856H7.62858C5.57144 13.2856 5.57144 20.4856 7.62858 20.4856H19.9714C20.1078 20.4856 20.2386 20.4315 20.3351 20.335C20.4315 20.2386 20.4857 20.1078 20.4857 19.9714C20.4857 19.835 20.4315 19.7041 20.3351 19.6077C20.2386 19.5113 20.1078 19.4571 19.9714 19.4571Z" fill="#9266CC"/>
<path d="M20.0599 19.4573H8.14286C7.11429 19.4573 7.11429 14.3145 8.14286 14.3145H20.0599C20.6277 14.3145 20.6277 19.4573 20.0599 19.4573Z" fill="#CCD6DD"/>
<path d="M8.4 15.343H20.4086C20.3391 14.7387 20.2234 14.3145 20.0599 14.3145H8.14286C7.29378 14.3145 7.14618 17.8157 7.69903 19.0397C7.49743 17.5179 7.73092 15.343 8.4 15.343Z" fill="#99AAB5"/>
<path d="M8.65714 6.6C8.65714 7.14559 8.44041 7.66883 8.05462 8.05462C7.66883 8.44041 7.14559 8.65714 6.6 8.65714H4.54286C2.48571 8.65714 2.48571 3 4.54286 3H6.6C7.14559 3 7.66883 3.21673 8.05462 3.60252C8.44041 3.98831 8.65714 4.51155 8.65714 5.05714V6.6Z" fill="#226699"/>
<path d="M18.4286 7.62857H17.9143V4.02857H18.4286C18.565 4.02857 18.6958 3.97439 18.7922 3.87794C18.8887 3.78149 18.9428 3.65068 18.9428 3.51429C18.9428 3.37789 18.8887 3.24708 18.7922 3.15063C18.6958 3.05418 18.565 3 18.4286 3H6.0857C4.02856 3 4.02856 8.65714 6.0857 8.65714H18.4286C18.565 8.65714 18.6958 8.60296 18.7922 8.50651C18.8887 8.41006 18.9428 8.27925 18.9428 8.14286C18.9428 8.00646 18.8887 7.87565 18.7922 7.7792C18.6958 7.68275 18.565 7.62857 18.4286 7.62857Z" fill="#55ACEE"/>
<path d="M18.517 7.62881H6.60001C5.57144 7.62881 5.57144 4.02881 6.60001 4.02881H18.517C19.0848 4.02881 19.0848 7.62881 18.517 7.62881Z" fill="#CCD6DD"/>
<path d="M6.59999 5.05738H18.9043C18.8456 4.47881 18.7171 4.02881 18.517 4.02881H6.59999C5.98645 4.02881 5.74165 5.30887 5.86045 6.34309C5.94068 5.64469 6.18496 5.05738 6.59999 5.05738Z" fill="#99AAB5"/>
<path d="M12.7714 11.2287C12.7714 11.7742 12.5547 12.2975 12.1689 12.6833C11.7831 13.0691 11.2599 13.2858 10.7143 13.2858H5.57142C3.51428 13.2858 3.51428 8.65723 5.57142 8.65723H10.7143C11.2599 8.65723 11.7831 8.87396 12.1689 9.25975C12.5547 9.64554 12.7714 10.1688 12.7714 10.7144V11.2287Z" fill="#F4900C"/>
<path d="M20.4857 12.2572H19.9714V9.6858H20.4857C20.6221 9.6858 20.7529 9.63161 20.8494 9.53517C20.9458 9.43872 21 9.30791 21 9.17151C21 9.03512 20.9458 8.9043 20.8494 8.80786C20.7529 8.71141 20.6221 8.65723 20.4857 8.65723H10.2C8.14285 8.65723 8.14285 13.2858 10.2 13.2858H20.4857C20.6221 13.2858 20.7529 13.2316 20.8494 13.1352C20.9458 13.0387 21 12.9079 21 12.7715C21 12.6351 20.9458 12.5043 20.8494 12.4079C20.7529 12.3114 20.6221 12.2572 20.4857 12.2572Z" fill="#FFAC33"/>
<path d="M20.5741 12.2575H10.7143C9.6857 12.2575 9.6857 9.68604 10.7143 9.68604H20.5741C21.1419 9.68604 21.1419 12.2575 20.5741 12.2575Z" fill="#CCD6DD"/>
<path d="M10.7143 10.7146H20.9918C20.9584 10.1684 20.82 9.68604 20.5742 9.68604H10.7143C10.0591 9.68604 9.82305 10.7285 10.003 11.486C10.1049 11.0545 10.3409 10.7146 10.7143 10.7146Z" fill="#99AAB5"/>
</svg>
