<svg width="25" height="24" viewBox="0 0 25 24" fill="none" xmlns="http://www.w3.org/2000/svg">
<path d="M2.10254 7.93403L9.98802 3.9006L8.3211 2.06958C2.10254 2.06958 2.10254 7.93403 2.10254 7.93403ZM21.7048 7.93403L13.8193 3.9006L15.4863 2.06958C21.7048 2.06958 21.7048 7.93403 21.7048 7.93403Z" fill="white"/>
<path d="M21.7463 5.96576C21.3058 4.11747 19.7097 2.93335 17.7932 2.93335H6.36482C4.45693 2.93335 2.8522 4.11747 2.41172 5.96576C2.41172 5.96576 -0.730384 16.0321 0.158352 19.1007C0.443369 20.0871 1.37615 20.6614 2.05847 20.9663C2.26839 21.0577 2.49945 21.0893 2.72621 21.0578C2.95298 21.0263 3.16663 20.9327 3.34364 20.7875C3.34364 20.7875 7.34424 17.3621 7.66381 17.1203C7.98337 16.8785 8.37203 16.7524 8.76933 16.7524H15.4154C15.8127 16.7524 16.2014 16.8871 16.5201 17.1203L20.8489 20.7875C21.2116 21.0838 21.8214 21.1045 22.1349 20.9663C22.8086 20.6709 23.7405 20.0871 24.0342 19.1007C24.897 16.0321 21.7463 5.96576 21.7463 5.96576Z" fill="#604F9E"/>
<path d="M17.8907 6.89754C18.1198 6.89754 18.3395 6.80655 18.5014 6.64458C18.6634 6.4826 18.7544 6.26292 18.7544 6.03385C18.7544 5.80479 18.6634 5.58511 18.5014 5.42313C18.3395 5.26116 18.1198 5.17017 17.8907 5.17017C17.6617 5.17017 17.442 5.26116 17.28 5.42313C17.118 5.58511 17.027 5.80479 17.027 6.03385C17.027 6.26292 17.118 6.4826 17.28 6.64458C17.442 6.80655 17.6617 6.89754 17.8907 6.89754Z" fill="#FCD53F"/>
<path d="M17.8907 10.8014C18.1198 10.8014 18.3395 10.7104 18.5014 10.5484C18.6634 10.3864 18.7544 10.1667 18.7544 9.93766C18.7544 9.7086 18.6634 9.48892 18.5014 9.32694C18.3395 9.16497 18.1198 9.07397 17.8907 9.07397C17.6617 9.07397 17.442 9.16497 17.28 9.32694C17.118 9.48892 17.027 9.7086 17.027 9.93766C17.027 10.1667 17.118 10.3864 17.28 10.5484C17.442 10.7104 17.6617 10.8014 17.8907 10.8014Z" fill="#86D72F"/>
<path d="M15.9388 8.84945C16.1679 8.84945 16.3876 8.75845 16.5495 8.59648C16.7115 8.43451 16.8025 8.21482 16.8025 7.98576C16.8025 7.75669 16.7115 7.53701 16.5495 7.37504C16.3876 7.21307 16.1679 7.12207 15.9388 7.12207C15.7098 7.12207 15.4901 7.21307 15.3281 7.37504C15.1661 7.53701 15.0751 7.75669 15.0751 7.98576C15.0751 8.21482 15.1661 8.43451 15.3281 8.59648C15.4901 8.75845 15.7098 8.84945 15.9388 8.84945Z" fill="#00A6ED"/>
<path d="M19.8427 8.84945C20.0718 8.84945 20.2914 8.75845 20.4534 8.59648C20.6154 8.43451 20.7064 8.21482 20.7064 7.98576C20.7064 7.75669 20.6154 7.53701 20.4534 7.37504C20.2914 7.21307 20.0718 7.12207 19.8427 7.12207C19.6136 7.12207 19.3939 7.21307 19.232 7.37504C19.07 7.53701 18.979 7.75669 18.979 7.98576C18.979 8.21482 19.07 8.43451 19.232 8.59648C19.3939 8.75845 19.6136 8.84945 19.8427 8.84945Z" fill="#F8312F"/>
<path d="M6.62823 9.87719C7.12072 9.87719 7.59304 9.68155 7.94128 9.33331C8.28952 8.98507 8.48516 8.51275 8.48516 8.02026C8.48516 7.52777 8.28952 7.05546 7.94128 6.70721C7.59304 6.35897 7.12072 6.16333 6.62823 6.16333C6.13574 6.16333 5.66343 6.35897 5.31518 6.70721C4.96694 7.05546 4.7713 7.52777 4.7713 8.02026C4.7713 8.51275 4.96694 8.98507 5.31518 9.33331C5.66343 9.68155 6.13574 9.87719 6.62823 9.87719ZM15.2651 14.9039C15.7576 14.9039 16.2299 14.7082 16.5782 14.36C16.9264 14.0117 17.1221 13.5394 17.1221 13.0469C17.1221 12.5544 16.9264 12.0821 16.5782 11.7339C16.2299 11.3856 15.7576 11.19 15.2651 11.19C14.7726 11.19 14.3003 11.3856 13.9521 11.7339C13.6038 12.0821 13.4082 12.5544 13.4082 13.0469C13.4082 13.5394 13.6038 14.0117 13.9521 14.36C14.3003 14.7082 14.7726 14.9039 15.2651 14.9039ZM10.6185 12.4855H10.964C11.2058 12.4855 11.439 12.6496 11.4649 12.8915C11.5253 13.2024 11.2835 13.4788 10.9812 13.4788H10.6098C10.477 13.4788 10.3496 13.5316 10.2556 13.6255C10.1617 13.7194 10.1089 13.8469 10.1089 13.9797V14.3511C10.1089 14.6534 9.83252 14.8952 9.52159 14.8348C9.27976 14.7916 9.11566 14.5584 9.11566 14.3166V13.9711C9.11566 13.8382 9.06288 13.7108 8.96894 13.6169C8.87499 13.5229 8.74757 13.4701 8.61472 13.4701H8.24333C7.94104 13.4701 7.69921 13.1938 7.75967 12.8828C7.80285 12.641 8.03605 12.4769 8.27788 12.4769H8.62335C8.89973 12.4769 9.12429 12.2523 9.12429 11.976V11.6046C9.12429 11.3023 9.40067 11.0604 9.7116 11.1209C9.95344 11.1641 10.1175 11.3973 10.1175 11.6391V11.9846C10.1175 12.261 10.3421 12.4855 10.6185 12.4855Z" fill="#A4AEEB"/>
</svg>
