<svg width="24" height="24" viewBox="0 0 24 24" fill="none" xmlns="http://www.w3.org/2000/svg">
<path d="M21.5 19.5V12H19.5V19.5C19.5 22 21.5 24 24 24V22C22.6 22 21.5 20.9 21.5 19.5Z" fill="#3F51B5"/>
<path d="M12 21.5C17.2467 21.5 21.5 17.2467 21.5 12C21.5 6.75329 17.2467 2.5 12 2.5C6.75329 2.5 2.5 6.75329 2.5 12C2.5 17.2467 6.75329 21.5 12 21.5Z" fill="#90A4AE"/>
<path d="M12 13C12.5523 13 13 12.5523 13 12C13 11.4477 12.5523 11 12 11C11.4477 11 11 11.4477 11 12C11 12.5523 11.4477 13 12 13Z" fill="#37474F"/>
<path d="M12 9.5C13.3807 9.5 14.5 8.38071 14.5 7C14.5 5.61929 13.3807 4.5 12 4.5C10.6193 4.5 9.5 5.61929 9.5 7C9.5 8.38071 10.6193 9.5 12 9.5Z" fill="#253278"/>
<path d="M12 19.5C13.3807 19.5 14.5 18.3807 14.5 17C14.5 15.6193 13.3807 14.5 12 14.5C10.6193 14.5 9.5 15.6193 9.5 17C9.5 18.3807 10.6193 19.5 12 19.5Z" fill="#253278"/>
<path d="M17 14.5C18.3807 14.5 19.5 13.3807 19.5 12C19.5 10.6193 18.3807 9.5 17 9.5C15.6193 9.5 14.5 10.6193 14.5 12C14.5 13.3807 15.6193 14.5 17 14.5Z" fill="#253278"/>
<path d="M7 14.5C8.38071 14.5 9.5 13.3807 9.5 12C9.5 10.6193 8.38071 9.5 7 9.5C5.61929 9.5 4.5 10.6193 4.5 12C4.5 13.3807 5.61929 14.5 7 14.5Z" fill="#253278"/>
</svg>
