<svg width="24" height="24" viewBox="0 0 24 24" fill="none" xmlns="http://www.w3.org/2000/svg">
<path fill-rule="evenodd" clip-rule="evenodd" d="M8.84403 4.25C8.84403 5.31087 9.26546 6.32828 10.0156 7.07843C10.7657 7.82857 11.7832 8.25 12.844 8.25C13.9049 8.25 14.9223 7.82857 15.6725 7.07843C16.4226 6.32828 16.844 5.31087 16.844 4.25C16.844 3.18913 16.4226 2.17172 15.6725 1.42157C14.9223 0.671427 13.9049 0.25 12.844 0.25C11.7832 0.25 10.7657 0.671427 10.0156 1.42157C9.26546 2.17172 8.84403 3.18913 8.84403 4.25ZM4.25803 9.18C5.48653 9.1095 7.27103 9.045 9.68403 9.045C12.097 9.045 13.882 9.1095 15.1105 9.18C16.8345 9.2785 18.2255 10.5765 18.3575 12.337L18.37 12.506C18.978 12.2163 19.5995 11.956 20.2325 11.726C20.8775 11.495 21.551 11.566 22.0875 11.911C22.624 12.256 22.9675 12.839 23.0245 13.5225C23.082 14.2085 23.125 15.1415 23.125 16.3975C23.125 17.6535 23.082 18.586 23.0245 19.2725C22.967 19.9555 22.6235 20.539 22.087 20.884C21.5505 21.229 20.8775 21.2995 20.2325 21.069C19.5995 20.839 18.978 20.5787 18.37 20.289L18.3575 20.458C18.225 22.218 16.8345 23.516 15.1105 23.615C13.882 23.685 12.097 23.75 9.68403 23.75C7.27103 23.75 5.48653 23.685 4.25803 23.615C2.53403 23.516 1.14303 22.218 1.01053 20.458C0.93653 19.471 0.875031 18.1305 0.875031 16.3975C0.875031 14.6645 0.93653 13.324 1.01053 12.3365C1.14303 10.5765 2.53403 9.2785 4.25803 9.1795M9.68403 11.0445C7.30703 11.0445 5.56053 11.108 4.37253 11.176C3.61253 11.2195 3.05953 11.7625 3.00503 12.486C2.93503 13.421 2.87503 14.711 2.87503 16.397C2.87503 18.083 2.93503 19.373 3.00503 20.307C3.05953 21.031 3.61203 21.574 4.37253 21.6175C5.56053 21.6855 7.30703 21.749 9.68403 21.749C12.061 21.749 13.808 21.6855 14.996 21.6175C15.756 21.574 16.309 21.031 16.3635 20.3075C16.4335 19.3725 16.4935 18.0825 16.4935 16.397C16.4935 14.711 16.4335 13.4205 16.3635 12.4865C16.3085 11.7625 15.7565 11.2195 14.996 11.176C13.808 11.108 12.0615 11.0445 9.68403 11.0445ZM12.312 12.506C12.5205 12.488 12.7795 12.476 13.099 12.476C13.4185 12.476 13.6775 12.488 13.886 12.506C14.586 12.566 15.027 13.1205 15.0515 13.764C15.0585 13.9455 15.063 14.169 15.063 14.442C15.063 14.7155 15.0585 14.939 15.0515 15.1205C15.027 15.764 14.5865 16.3185 13.8865 16.3785C13.6775 16.3965 13.4185 16.4085 13.099 16.4085C12.7795 16.4085 12.5205 16.3965 12.312 16.3785C11.612 16.3185 11.171 15.7635 11.1465 15.1205C11.1395 14.939 11.135 14.7155 11.135 14.442C11.135 14.1685 11.1395 13.9455 11.1465 13.764C11.171 13.1205 11.6115 12.566 12.3115 12.506M5.24453 7.656C4.58149 7.656 3.9456 7.39261 3.47676 6.92377C3.00792 6.45493 2.74453 5.81904 2.74453 5.156C2.74453 4.49296 3.00792 3.85707 3.47676 3.38823C3.9456 2.91939 4.58149 2.656 5.24453 2.656C5.90757 2.656 6.54346 2.91939 7.0123 3.38823C7.48114 3.85707 7.74453 4.49296 7.74453 5.156C7.74453 5.81904 7.48114 6.45493 7.0123 6.92377C6.54346 7.39261 5.90757 7.656 5.24453 7.656Z" fill="white" fill-opacity="1"/>
</svg>
