<svg width="24" height="24" viewBox="0 0 24 24" fill="none" xmlns="http://www.w3.org/2000/svg">
<path d="M5.07596 9.5752C4.24718 9.5752 3.5238 10.1471 3.42241 10.9899C3.3154 11.88 3.20599 13.2546 3.20599 15.1591C3.20599 16.8202 3.28935 18.0117 3.38193 18.8237C3.49294 19.7995 4.2568 20.486 5.22505 20.5574C6.44057 20.6471 8.56623 20.7429 12.103 20.7429C15.6401 20.7429 17.7658 20.6471 18.9813 20.5574C19.9492 20.486 20.7134 19.7999 20.8248 18.8237C20.917 18.0117 21 16.8198 21 15.1591C21 13.2546 20.891 11.88 20.7836 10.9903C20.6826 10.1471 19.9592 9.5752 19.1304 9.5752H5.07596Z" fill="#8FBFFA"/>
<path d="M11.2954 3.92302C7.41843 4.60633 5.27434 5.03074 4.17223 5.26318C3.46929 5.41106 2.82566 5.91162 2.83087 6.70834C2.83248 6.98407 2.85893 7.3147 2.92786 7.70424C3.02003 8.22564 3.14908 8.63722 3.27813 8.95182C3.53221 9.57221 4.19267 9.78742 4.79142 9.68161L19.3769 7.10991C19.9756 7.0045 20.5226 6.57609 20.5491 5.90641C20.5627 5.56696 20.5435 5.13574 20.4513 4.61434C20.3953 4.28496 20.3119 3.96082 20.202 3.64529C19.9343 2.89506 19.1584 2.64498 18.4475 2.74597C17.3318 2.90508 15.1724 3.23932 11.2954 3.92302Z" fill="#2859C5"/>
<path d="M6.26944 9.42189L7.26534 4.65479C7.65595 4.58158 8.08197 4.50263 8.54338 4.41794L7.54467 9.19706L6.26944 9.42189ZM10.552 8.66685L11.5523 3.87851C12.0004 3.79969 12.4252 3.72555 12.8268 3.65608L11.8273 8.44202L10.552 8.66685ZM16.1094 7.68658L14.8342 7.91181L15.8289 3.15112C16.2521 3.08219 16.6756 3.01473 17.0993 2.94873L16.1094 7.68658Z" fill="#8FBFFA"/>
<path d="M6.32834 14.5861C6.3584 13.9958 6.78802 13.5642 7.37835 13.5337C7.72421 13.5157 8.18469 13.5024 8.79104 13.5024C9.3974 13.5024 9.85788 13.5157 10.2037 13.5337C10.7941 13.5646 11.2237 13.9958 11.2533 14.5861C11.2666 14.8506 11.2758 15.1764 11.2758 15.5728C11.2758 15.9692 11.2666 16.2954 11.2533 16.5599C11.2237 17.1502 10.7941 17.5818 10.2037 17.6123C9.73319 17.6349 9.26213 17.6453 8.79104 17.6435C8.31982 17.6453 7.84863 17.6349 7.37795 17.6123C6.78802 17.5814 6.3584 17.1502 6.32874 16.5599C6.31299 16.2311 6.30551 15.902 6.3063 15.5728C6.3063 15.1764 6.31512 14.8502 6.32834 14.5861Z" fill="#2859C5"/>
</svg>
