<svg width="24" height="24" viewBox="0 0 24 24" fill="none" xmlns="http://www.w3.org/2000/svg">
<path d="M8.00003 17V20H16V13H8.00003V17ZM6.00003 15V13H4.00003V11H6.00003V9H4.00003V15H6.00003ZM6.00003 17H4.00003V18C4.00003 18.5304 4.21074 19.0391 4.58582 19.4142C4.96089 19.7893 5.4696 20 6.00003 20V17ZM20 15V9H18V11H20V13H18V15H20ZM20 17H18V20C18.5305 20 19.0392 19.7893 19.4142 19.4142C19.7893 19.0391 20 18.5304 20 18V17ZM16 9V4H8.00003V11H16V9ZM20 7V6C20 5.46957 19.7893 4.96086 19.4142 4.58579C19.0392 4.21071 18.5305 4 18 4V7H20ZM6.00003 7V4C5.4696 4 4.96089 4.21071 4.58582 4.58579C4.21074 4.96086 4.00003 5.46957 4.00003 6V7H6.00003ZM6.00003 2H18C19.0609 2 20.0783 2.42143 20.8285 3.17157C21.5786 3.92172 22 4.93913 22 6V18C22 19.0609 21.5786 20.0783 20.8285 20.8284C20.0783 21.5786 19.0609 22 18 22H6.00003C4.93916 22 3.92175 21.5786 3.1716 20.8284C2.42146 20.0783 2.00003 19.0609 2.00003 18V6C2.00003 4.93913 2.42146 3.92172 3.1716 3.17157C3.92175 2.42143 4.93916 2 6.00003 2Z" fill="white" fill-opacity="1"/>
</svg>
