<svg width="16" height="16" viewBox="0 0 16 16" fill="none" xmlns="http://www.w3.org/2000/svg">
<path d="M2.78876 13.5274C2.78876 13.5274 5.19126 16.0549 9.31251 15.4137C13.4338 14.7737 15.0863 11.1599 15.4263 9.09993C15.8588 6.47618 14.66 4.67243 14.5963 4.57368C14.5488 4.50118 2.78876 13.5274 2.78876 13.5274Z" fill="#DC5819"/>
<path d="M2.60125 2.68869C0.132497 5.28744 -0.286253 9.08369 1.57 12.0174C2.43375 13.3824 2.9625 13.6599 2.9625 13.6599C2.9625 13.6599 7.00125 16.2499 11.54 12.3237C15.4275 8.96119 14.6037 4.58244 14.6037 4.58244C14.6037 4.58244 14.1187 3.52244 13.0987 2.51619C10.835 0.28119 5.775 -0.65381 2.60125 2.68869Z" fill="#EF6C32"/>
<path d="M12.4963 2.005C12.46 2.0075 8.84876 2.2675 5.02876 7.4025C2.61626 10.645 2.73501 12.9338 2.82876 13.5612C2.82876 13.5612 2.64501 13.41 2.51501 13.27C2.38501 13.1313 2.28376 13.0075 2.28376 13.0075C2.27376 11.9087 2.60251 9.82625 4.62876 7.10375C7.71251 2.955 10.6613 1.87375 11.8975 1.59375C11.8975 1.59375 12.0488 1.6825 12.195 1.77375C12.3025 1.84125 12.4963 2.005 12.4963 2.005Z" fill="#2D3130"/>
<path d="M1.94626 3.47241C2.34751 4.13116 3.31626 5.55491 4.99376 7.04116C7.10501 8.91366 9.30001 10.4362 11.515 11.5649C12.5613 12.0987 13.365 12.4112 13.9338 12.5949C13.9338 12.5949 13.8513 12.7212 13.7738 12.8249C13.6963 12.9287 13.6113 13.0162 13.6113 13.0162C13.0325 12.8199 12.26 12.5074 11.2863 12.0099C9.03376 10.8612 6.80376 9.31491 4.66126 7.41491C3.07376 6.00741 2.11126 4.67491 1.63876 3.92866C1.63876 3.92866 1.70501 3.79741 1.79251 3.68116C1.88001 3.56491 1.94626 3.47241 1.94626 3.47241Z" fill="#2D3130"/>
<path d="M6.64748 0.596191C6.46873 0.799941 6.21374 1.13119 5.91623 1.63244C5.64373 2.08994 5.50373 2.54494 5.34123 3.07244C5.07498 3.93744 4.77373 4.91744 3.78748 6.16994C2.41748 7.90994 1.07123 8.49119 0.443735 8.67744C0.443735 8.67744 0.426235 8.51494 0.419985 8.40119C0.413735 8.28744 0.416235 8.15869 0.416235 8.15869C1.01248 7.95494 2.19248 7.38494 3.39373 5.86119C4.32248 4.68119 4.60874 3.74869 4.86248 2.92619C5.02748 2.39119 5.18248 1.88619 5.48623 1.37744C5.62998 1.13619 5.76498 0.929941 5.88873 0.757441C5.88873 0.757441 6.02748 0.711191 6.21748 0.668691C6.36498 0.633691 6.64748 0.596191 6.64748 0.596191ZM8.58998 15.5012C8.17124 15.1224 7.30623 14.2574 6.67498 13.0537C5.97623 11.7224 5.64874 9.71994 6.58123 8.46869C7.64623 7.04119 9.63498 6.84744 11.4425 6.84744H11.45C13.7512 6.84869 15.4825 7.32994 15.5025 7.33619C15.5025 7.33619 15.4887 7.16744 15.47 7.02369C15.4537 6.89994 15.4362 6.78494 15.4362 6.78494C15.3487 6.76244 13.8187 6.34869 11.45 6.34744H11.4425C9.51124 6.34744 7.37623 6.56494 6.17998 8.16994C5.40998 9.20244 5.12748 11.1849 6.23248 13.2862C6.75248 14.2762 7.40749 15.0399 7.88623 15.5212C7.88623 15.5212 8.02623 15.5262 8.20498 15.5237C8.38123 15.5212 8.58998 15.5012 8.58998 15.5012Z" fill="#2D3130"/>
</svg>
