<svg width="24" height="24" viewBox="0 0 24 24" fill="none" xmlns="http://www.w3.org/2000/svg">
<path d="M6.62521 2.68901C8.63828 1.52354 10.9763 1.04472 13.2854 1.32573L13.2844 1.3267C14.9417 1.52538 16.5301 2.10735 17.9231 3.0269C19.3159 3.94644 20.4759 5.17781 21.3098 6.62358L21.4621 6.89604C22.2045 8.2709 22.6378 9.79287 22.7317 11.355C22.8317 13.0213 22.5425 14.6885 21.8859 16.2232C20.9745 18.3637 19.3906 20.1496 17.3742 21.3101L17.3733 21.3091C12.3917 24.1823 6.06661 22.6216 2.97872 17.8462L2.69064 17.3746C-0.185493 12.3936 1.37784 6.06793 6.15255 2.97807L6.62521 2.68901ZM14.843 14.5533C14.4349 14.7571 14.0312 14.9784 13.6369 15.2183C11.2263 16.6853 9.2986 18.6873 8.4836 20.5533C10.8852 21.5378 13.6737 21.5051 16.1418 20.2671C16.1141 20.0968 16.0792 19.878 16.0334 19.6207C15.9156 18.9582 15.7376 18.0385 15.4983 17.0132C15.3139 16.2235 15.0949 15.3824 14.843 14.5533ZM12.2678 9.31694C11.922 9.56399 11.5678 9.80138 11.2053 10.024C8.63548 11.6019 5.54724 12.62 2.75216 12.2818C2.79602 13.7618 3.19718 15.2525 3.98946 16.6246L4.23751 17.0308C5.0049 18.2175 6.00628 19.1716 7.14376 19.8716C8.14532 17.6453 10.3338 15.4719 12.8576 13.9361C13.3428 13.6409 13.8462 13.3657 14.3625 13.1158C14.0605 12.2933 13.7243 11.5228 13.3508 10.8755C13.0523 10.3584 12.6818 9.83374 12.2678 9.31694ZM21.1692 13.2183C19.6323 13.0102 17.9129 13.2996 16.2229 13.9439C16.5137 14.8816 16.7602 15.8198 16.9592 16.6724C17.206 17.7296 17.3887 18.6761 17.51 19.358C17.5138 19.3793 17.517 19.4006 17.5207 19.4214C18.829 18.4503 19.8628 17.1461 20.5061 15.6353V15.6333C20.837 14.8597 21.0588 14.047 21.1692 13.2183ZM16.8576 4.12553C16.1794 5.63447 14.9537 7.11681 13.4494 8.39506C13.9014 8.96047 14.3129 9.54222 14.6496 10.1255C15.0594 10.8355 15.4224 11.6597 15.7434 12.524C17.5561 11.8404 19.461 11.4994 21.2473 11.7154C21.2445 11.6253 21.24 11.5349 21.2346 11.4449C21.1484 10.0113 20.7298 8.61687 20.0109 7.37358H20.01C19.2925 6.12962 18.2953 5.06903 17.0969 4.27788C17.0179 4.22574 16.938 4.17513 16.8576 4.12553ZM6.92013 4.26909C4.60332 5.78896 3.17758 8.19849 2.83224 10.7798C5.18856 11.0985 7.97387 10.2483 10.4211 8.74565C10.7148 8.5653 11.0005 8.37611 11.2785 8.1812C10.6248 7.47744 9.9299 6.80758 9.27071 6.21635C8.54177 5.56257 7.87325 5.0152 7.3879 4.63139C7.20339 4.48549 7.04462 4.36405 6.92013 4.26909ZM13.1047 2.81499C11.4866 2.61802 9.8519 2.85499 8.36544 3.49174C8.86476 3.88787 9.53786 4.44198 10.2717 5.10014C10.9726 5.72878 11.7404 6.46553 12.4699 7.25932C13.8747 6.06704 14.9583 4.72366 15.5168 3.44292C14.7475 3.12701 13.9367 2.9146 13.1057 2.81499H13.1047Z" fill="white" fill-opacity="1"/>
</svg>
