<svg width="24" height="24" viewBox="0 0 24 24" fill="none" xmlns="http://www.w3.org/2000/svg">
<path d="M12 1.25C17.8156 1.25 22.5486 5.86776 22.7402 11.6367C22.749 11.6939 22.7497 11.7516 22.7451 11.8096C22.7462 11.8729 22.75 11.9364 22.75 12C22.75 14.6413 21.7952 17.0582 20.2148 18.9297C20.2129 18.9485 20.2114 18.9674 20.208 18.9863C20.1515 19.2985 19.9087 19.5286 19.6152 19.5869C18.3338 20.8731 16.7279 21.8326 14.9316 22.3408C14.7635 22.6699 14.3758 22.8337 14.0176 22.708C13.9413 22.6812 13.8745 22.6403 13.8135 22.5938C13.2237 22.694 12.6183 22.75 12 22.75C10.7005 22.75 9.45488 22.5192 8.30176 22.0967C8.20983 22.1357 8.10915 22.1582 8.00293 22.1572C7.68624 22.1542 7.41796 21.9546 7.31055 21.6758C4.02701 20.0815 1.67732 16.8652 1.30273 13.0684C1.2494 12.93 1.24 12.7825 1.27051 12.6416C1.25801 12.4293 1.25 12.2154 1.25 12C1.25 6.06279 6.06279 1.25 12 1.25ZM8.7998 17.2002L8.7666 20.667C9.77329 21.0427 10.8623 21.25 12 21.25C12.6146 21.25 13.2149 21.1886 13.7959 21.0742L14.9082 17.9062C14.9223 17.8662 14.94 17.8282 14.96 17.792L13.4307 15.498C13.421 15.4984 13.4111 15.4999 13.4014 15.5H10.5986C10.4666 15.4983 10.3364 15.4755 10.2129 15.4336L8.7998 17.2002ZM15.5752 20.5332C16.3369 20.2137 17.0445 19.7924 17.6865 19.291L16.1113 19.0059L15.5752 20.5332ZM4.91992 17.9502C5.5855 18.7413 6.38054 19.4193 7.27344 19.9512L7.29297 17.9248L4.91992 17.9502ZM15.4883 11.6172C15.4791 11.6979 15.465 11.7782 15.4404 11.8564L14.6006 14.5518L14.624 14.584L16.6172 17.5732L19.0273 18.0098C20.386 16.4226 21.2161 14.3721 21.2461 12.126L18.8496 10.3564L15.4883 11.6172ZM2.82031 13.126C2.96598 14.3261 3.34044 15.4548 3.90039 16.4678C3.93139 16.4635 3.96302 16.4613 3.99512 16.4609L7.5 16.4229L9.28613 14.1904L8.66211 12.1885L5.24609 11.334L2.82031 13.126ZM10.0361 11.5547L10.7979 14H13.2021L13.9639 11.5547L12 10.0684L10.0361 11.5547ZM3.47656 8.39844C3.09577 9.29855 2.85655 10.2719 2.7793 11.291L4.26758 10.1924L3.47656 8.39844ZM8.83984 3.30371C7.02081 3.96485 5.46907 5.18131 4.38672 6.74707L5.78906 9.92383L8.78418 10.6729C8.84638 10.5954 8.9158 10.5235 8.99512 10.4619L9.00195 10.4561L11.25 8.75488V4.99902L8.83984 3.30371ZM12.75 5.02051V8.75488L14.7715 10.2842L18.1406 9.02051L19.2178 6.21777C18.1671 4.90795 16.7689 3.88928 15.1611 3.30469L12.75 5.02051ZM19.707 9.125L21.0596 10.123C20.8885 9.29305 20.6037 8.50496 20.2266 7.77246L19.707 9.125ZM12 2.75C11.5851 2.75 11.1768 2.7791 10.7764 2.83203L12.0137 3.70312L13.2344 2.83398C12.8305 2.78011 12.4186 2.75 12 2.75Z" fill="white" fill-opacity="1"/>
</svg>
