<svg width="25" height="25" viewBox="0 0 25 25" fill="none" xmlns="http://www.w3.org/2000/svg">
<path d="M8.98106 22.4371C9.071 22.5346 9.11882 22.6637 9.11414 22.7963C9.10946 22.9288 9.05265 23.0542 8.95606 23.1451L7.87006 24.1606C7.77302 24.2506 7.64428 24.2984 7.51204 24.2937C7.3798 24.2889 7.25484 24.2319 7.16456 24.1351L0.840058 17.3191C0.750183 17.2216 0.702446 17.0925 0.707221 16.9599C0.711995 16.8273 0.768896 16.702 0.865558 16.6111L1.95306 15.5971C2.05009 15.5072 2.17884 15.4593 2.31108 15.4641C2.44332 15.4689 2.56827 15.5259 2.65856 15.6226L8.98106 22.4371ZM17.0511 9.61213C17.1409 9.7097 17.1887 9.8388 17.1839 9.97137C17.1791 10.1039 17.1222 10.2293 17.0256 10.3201L10.1906 16.7051C10.0935 16.7951 9.96478 16.8429 9.83254 16.8382C9.7003 16.8334 9.57534 16.7764 9.48506 16.6796L7.85356 14.9191C7.76368 14.8216 7.71595 14.6925 7.72072 14.5599C7.7255 14.4273 7.7824 14.302 7.87906 14.2111L14.7126 7.82613C14.7605 7.78147 14.8168 7.74671 14.8782 7.72382C14.9396 7.70093 15.0049 7.69036 15.0703 7.69273C15.1358 7.6951 15.2002 7.71035 15.2598 7.73762C15.3193 7.76488 15.373 7.80363 15.4176 7.85163L17.0511 9.61213ZM11.3066 20.2636C11.4936 20.4651 11.4821 20.7836 11.2811 20.9716L10.1936 21.9866C10.0965 22.0766 9.96778 22.1244 9.83554 22.1197C9.7033 22.1149 9.57834 22.0579 9.48806 21.9611L3.16706 15.1451C3.07712 15.0476 3.02929 14.9186 3.03398 14.786C3.03866 14.6534 3.09547 14.5281 3.19206 14.4371L4.27756 13.4226C4.37459 13.3327 4.50334 13.2848 4.63558 13.2896C4.76782 13.2944 4.89277 13.3514 4.98306 13.4481L11.3066 20.2636ZM21.8381 9.85663C21.9279 9.95427 21.9755 10.0834 21.9706 10.216C21.9658 10.3485 21.9088 10.4738 21.8121 10.5646L20.7251 11.5796C20.6281 11.6698 20.4992 11.7178 20.3669 11.7132C20.2345 11.7085 20.1094 11.6515 20.0191 11.5546L13.6971 4.74013C13.607 4.64268 13.5591 4.51359 13.5638 4.38098C13.5685 4.24837 13.6253 4.12298 13.7221 4.03213L14.8121 3.01463C14.86 2.96997 14.9163 2.9352 14.9777 2.91232C15.0391 2.88943 15.1044 2.87886 15.1698 2.88123C15.2353 2.8836 15.2997 2.89885 15.3593 2.92612C15.4188 2.95338 15.4725 2.99213 15.5171 3.04013L21.8381 9.85663ZM24.1601 7.68663C24.2497 7.7844 24.2973 7.91353 24.2925 8.04611C24.2878 8.17868 24.231 8.30406 24.1346 8.39513L23.0496 9.40963C23.0016 9.45432 22.9454 9.48912 22.884 9.51206C22.8226 9.53499 22.7574 9.5456 22.6919 9.54327C22.6264 9.54095 22.562 9.52575 22.5024 9.49852C22.4428 9.4713 22.3892 9.4326 22.3446 9.38463L16.0236 2.56713C15.9338 2.46942 15.8862 2.34033 15.8908 2.20776C15.8955 2.07518 15.9522 1.94977 16.0486 1.85863L17.1346 0.842131C17.1824 0.797396 17.2386 0.762548 17.2999 0.739585C17.3613 0.716623 17.4265 0.705998 17.492 0.708321C17.5575 0.710644 17.6218 0.725868 17.6814 0.753121C17.7409 0.780373 17.7945 0.819117 17.8391 0.867131L24.1601 7.68663Z" fill="white" fill-opacity="1"/>
</svg>
