<svg width="16" height="16" viewBox="0 0 16 16" fill="none" xmlns="http://www.w3.org/2000/svg">
<path d="M2.64749 5.32614L4.11249 5.06489C4.20595 5.04333 4.28713 4.98577 4.3384 4.90471C4.38967 4.82364 4.40689 4.72563 4.38631 4.63194C4.36573 4.53826 4.30901 4.45648 4.22849 4.40437C4.14796 4.35226 4.05013 4.33403 3.95624 4.35364L2.50499 4.75739C2.30874 4.80114 2.17624 4.92989 2.21874 5.12614C2.26249 5.32239 2.45124 5.36989 2.64749 5.32614Z" fill="#EDA600"/>
<path d="M11.195 8.85118C10.4725 8.41993 10.0012 8.11619 9.54874 7.53619L7.45499 4.85618C7.39337 4.75424 7.31196 4.66567 7.21557 4.59569C7.11918 4.5257 7.00976 4.47572 6.89374 4.44869C6.88374 4.44619 6.87374 4.44494 6.86374 4.44244L6.86499 4.43369L2.57999 4.05994C2.44624 4.04869 2.31249 4.06244 2.18374 4.10244L1.51874 4.30994C1.43124 4.33744 1.34749 4.37619 1.26874 4.42619C1.11374 4.52494 0.834994 4.70869 0.706244 4.82119C0.634994 4.88369 0.587494 4.94744 0.587494 5.06119C0.587494 5.15369 0.624994 5.23618 0.694994 5.29368C0.771244 5.35743 0.878744 5.38244 0.988744 5.36244C1.12749 5.33744 1.28124 5.20369 1.38624 5.09619C1.41499 5.06619 1.45249 5.04744 1.49374 5.04244L2.19749 4.94993C2.25124 4.94243 2.30374 4.94494 2.35374 4.95619C2.44749 4.97744 2.55749 4.99619 2.68624 5.01994C2.85249 5.04994 3.05999 5.08618 3.30249 5.13994C3.60249 5.20618 5.83374 5.92619 5.85499 5.93244C6.00624 5.98494 6.13874 6.08618 6.22749 6.21993L7.06749 7.48244C7.38374 7.95744 7.37999 8.58369 7.05999 9.04119L7.04749 9.05869C6.70874 9.54744 6.30499 10.4124 6.14874 10.9874C5.81249 12.2212 6.01624 13.0237 6.75749 13.3737L9.58749 14.7099L12.91 12.7262L14.1462 10.5412L11.195 8.85118Z" fill="url(#paint0_linear_25_11577)"/>
<path d="M7.64249 10.99C7.69864 10.9053 7.73755 10.8104 7.75701 10.7106C7.77646 10.6109 7.77608 10.5083 7.75589 10.4087C7.73569 10.3091 7.69607 10.2145 7.6393 10.1302C7.58252 10.0459 7.5097 9.97362 7.42499 9.91749L6.87374 9.55249L6.01999 10.8425L6.57124 11.2075C6.92624 11.4437 7.40624 11.3462 7.64249 10.99Z" fill="#E59600"/>
<path d="M2.49375 7.61991C2.49375 7.61991 2.51 7.59366 2.5175 7.58241L2.5425 7.54491C3.5425 6.22241 4.515 6.43866 5.1075 6.70866C5.75 6.99991 6.19625 7.26116 6.19625 7.26116C6.19625 7.26116 6.1575 7.26866 6.095 7.28866C6.03 7.31116 5.97625 7.34741 5.97625 7.34741L6.41875 7.74616L5.08875 7.56116C5.08478 7.56046 5.0807 7.56105 5.0771 7.56285C5.07349 7.56466 5.07057 7.56757 5.06875 7.57116L4.91125 7.87866C4.75217 8.18727 4.57693 8.48727 4.38625 8.77741H4.3875C4.37875 8.78991 4.37125 8.80241 4.3625 8.81491C4.35375 8.82741 4.34625 8.83991 4.3375 8.85241H4.33625C4.14358 9.1415 3.93579 9.42022 3.71375 9.68741L3.4925 9.95241C3.48988 9.95552 3.48834 9.95939 3.48812 9.96345C3.48789 9.96751 3.48899 9.97153 3.49125 9.97491L4.18125 11.1274L3.64125 10.8749C3.64125 10.8749 3.6275 10.9387 3.6325 11.0074C3.6375 11.0724 3.64625 11.1112 3.64625 11.1112C3.64625 11.1112 3.18625 10.8174 2.69375 10.3124C2.2275 9.83366 1.6875 9.01741 2.49375 7.61991Z" fill="#543930"/>
<path d="M6.51249 7.33885C6.17624 7.11635 5.91624 7.3926 5.91624 7.3926L5.82124 7.53635L3.75749 10.6526L3.66249 10.7963C3.66249 10.7963 3.50999 11.1438 3.84624 11.3663C4.14249 11.5626 4.40999 11.4126 4.56124 11.1851L6.62499 8.0676C6.77499 7.8401 6.80874 7.5351 6.51249 7.33885Z" fill="#E59600"/>
<path d="M2.58875 7.63748C3.47875 6.29248 4.755 6.63123 6.21875 7.60123C7.7375 8.60623 7.48375 9.84248 7.00625 10.5637C6.53625 11.2737 5.50125 12.0075 3.9725 10.995C2.5075 10.0237 1.69875 8.98248 2.58875 7.63748Z" fill="#FFCA28"/>
<path d="M3.88376 10.2512C3.88376 10.2512 3.87876 10.2374 3.87126 10.2149C3.87001 10.2087 3.86751 10.2037 3.86501 10.1949C3.86376 10.1862 3.86251 10.1762 3.86001 10.1649L3.85626 10.1299C3.85501 10.1174 3.85501 10.1062 3.85501 10.0937V10.0549L3.85876 10.0137C3.86001 9.99993 3.86251 9.98493 3.86626 9.96993C3.86876 9.95493 3.87251 9.93993 3.87626 9.92493C3.88626 9.89493 3.89501 9.86493 3.91001 9.83493C3.92251 9.80493 3.94126 9.77743 3.95876 9.74868C3.97876 9.72243 3.99751 9.69493 4.02126 9.67118C4.04251 9.64618 4.06751 9.62618 4.09126 9.60618C4.10376 9.59743 4.11626 9.58743 4.12876 9.57993C4.14126 9.57118 4.15376 9.56368 4.16626 9.55743C4.17876 9.55118 4.19126 9.54368 4.20251 9.53868C4.21501 9.53368 4.22626 9.52868 4.23876 9.52368C4.25001 9.51993 4.26126 9.51493 4.27251 9.51118C4.28376 9.50868 4.29376 9.50618 4.30376 9.50368C4.31376 9.50118 4.32251 9.49868 4.33126 9.49743C4.34001 9.49618 4.34751 9.49493 4.35501 9.49368C4.38376 9.48993 4.40001 9.48993 4.40001 9.48993C4.45251 9.48868 4.49626 9.52993 4.49876 9.58243C4.50001 9.61493 4.48501 9.64368 4.46126 9.66118L4.44626 9.67243C4.44626 9.67243 4.43626 9.67993 4.42001 9.68993C4.41626 9.69243 4.41126 9.69493 4.40626 9.69868L4.39126 9.70993C4.38001 9.71743 4.36751 9.72618 4.35501 9.73743C4.34876 9.74243 4.34126 9.74743 4.33501 9.75243C4.32876 9.75868 4.32126 9.76493 4.31501 9.76993C4.31126 9.77243 4.30751 9.77618 4.30501 9.77868L4.29501 9.78868C4.28876 9.79618 4.28126 9.80243 4.27376 9.80868C4.26126 9.82368 4.24626 9.83868 4.23376 9.85493C4.22001 9.86993 4.20876 9.88868 4.19626 9.90493C4.18501 9.92243 4.17251 9.93993 4.16376 9.95868C4.15251 9.97618 4.14501 9.99493 4.13626 10.0137C4.13251 10.0224 4.12876 10.0324 4.12501 10.0412C4.12376 10.0462 4.12126 10.0499 4.11876 10.0549L4.11501 10.0687C4.11126 10.0774 4.10876 10.0862 4.10626 10.0937C4.10376 10.1024 4.10251 10.1099 4.09876 10.1174C4.09626 10.1249 4.09376 10.1324 4.09251 10.1399C4.09126 10.1462 4.08876 10.1524 4.08751 10.1587C4.08626 10.1649 4.08501 10.1699 4.08251 10.1749C4.08126 10.1812 4.08126 10.1887 4.08001 10.1937C4.07751 10.2174 4.07376 10.2312 4.07376 10.2312C4.06251 10.2849 4.01126 10.3187 3.95876 10.3074C3.94238 10.3056 3.92679 10.2994 3.91361 10.2895C3.90042 10.2796 3.89012 10.2664 3.88376 10.2512ZM5.56626 8.01493C5.56626 8.01493 5.55501 8.02243 5.53376 8.03493C5.52876 8.03743 5.52251 8.04118 5.51626 8.04493C5.51251 8.04868 5.50751 8.05243 5.50251 8.05618L5.48751 8.06743L5.46876 8.08243C5.46251 8.08743 5.45501 8.09243 5.44876 8.09743C5.44251 8.10368 5.43501 8.10868 5.42876 8.11493C5.42501 8.11743 5.42126 8.12118 5.41876 8.12368L5.40876 8.13368C5.40251 8.14118 5.39501 8.14743 5.38751 8.15368C5.37501 8.16868 5.36001 8.18368 5.34751 8.19993C5.33376 8.21493 5.32251 8.23368 5.31001 8.24993C5.29876 8.26743 5.28626 8.28493 5.27751 8.30368C5.26626 8.32118 5.25876 8.33993 5.25001 8.35868C5.24626 8.36743 5.24251 8.37743 5.23876 8.38618C5.23751 8.39118 5.23501 8.39493 5.23251 8.39993L5.22876 8.41368C5.22626 8.42243 5.22251 8.43118 5.22001 8.43868C5.21751 8.44743 5.21626 8.45493 5.21251 8.46243C5.20751 8.47743 5.20376 8.49243 5.20126 8.50618C5.20001 8.51243 5.19876 8.51868 5.19626 8.52493C5.19501 8.53118 5.19501 8.53618 5.19376 8.54118C5.19001 8.56118 5.18751 8.57243 5.18751 8.57243L5.18251 8.58993C5.16876 8.64118 5.11751 8.67118 5.06626 8.65743C5.05155 8.65348 5.03799 8.6461 5.02669 8.63588C5.01539 8.62567 5.00667 8.61292 5.00126 8.59868C5.00126 8.59868 4.99626 8.58368 4.98751 8.55618C4.98626 8.54868 4.98376 8.54118 4.98126 8.53368L4.97751 8.50618L4.97376 8.47493C4.97251 8.46368 4.97251 8.45243 4.97251 8.43993V8.40118L4.97626 8.35993C4.97751 8.34618 4.98001 8.33118 4.98376 8.31618C4.98751 8.30118 4.99001 8.28618 4.99376 8.27118C5.00376 8.24118 5.01251 8.21118 5.02751 8.18118C5.04001 8.15118 5.05876 8.12368 5.07501 8.09493C5.09501 8.06868 5.11376 8.04118 5.13751 8.01743C5.15876 7.99243 5.18376 7.97243 5.20751 7.95243C5.22001 7.94243 5.23251 7.93368 5.24501 7.92618C5.25751 7.91743 5.27001 7.90993 5.28251 7.90368C5.29501 7.89743 5.30751 7.89118 5.31876 7.88493C5.33126 7.87993 5.34251 7.87493 5.35501 7.86993C5.36751 7.86618 5.37751 7.86118 5.38876 7.85743C5.40126 7.85368 5.41126 7.85118 5.42251 7.84868C5.43251 7.84618 5.44251 7.84368 5.45126 7.84118C5.46001 7.83993 5.46501 7.83993 5.47126 7.83868C5.49501 7.83618 5.51001 7.83618 5.51001 7.83618C5.56376 7.83618 5.60876 7.87993 5.60876 7.93368C5.61001 7.96618 5.59251 7.99618 5.56626 8.01493Z" fill="#6D4C41"/>
<path d="M5.02625 9.5224C5.25625 9.6774 5.31375 9.9949 5.0475 10.3886C4.785 10.7774 4.465 10.8486 4.235 10.6936C4.005 10.5386 3.88875 10.2036 4.165 9.79615C4.4325 9.39865 4.79625 9.3674 5.02625 9.5224Z" fill="#01579B"/>
<path d="M4.93626 10.3151C5.08923 10.0902 5.07673 9.81506 4.90833 9.70053C4.73993 9.58599 4.47941 9.67547 4.32644 9.90038C4.17347 10.1253 4.18598 10.4005 4.35438 10.515C4.52278 10.6295 4.78329 10.5401 4.93626 10.3151Z" fill="#B3E5FC"/>
<mask id="mask0_25_11577" style="mask-type:luminance" maskUnits="userSpaceOnUse" x="4" y="9" width="2" height="2">
<path d="M4.93626 10.3151C5.08923 10.0902 5.07673 9.81506 4.90833 9.70053C4.73993 9.58599 4.47941 9.67547 4.32644 9.90038C4.17347 10.1253 4.18598 10.4005 4.35438 10.515C4.52278 10.6295 4.78329 10.5401 4.93626 10.3151Z" fill="white"/>
</mask>
<g mask="url(#mask0_25_11577)">
<path d="M4.99625 10.7139L4.405 9.70013L4.4775 9.31763L5.06875 10.3314L4.99625 10.7139Z" fill="white"/>
</g>
<path d="M6.055 8.00133C6.285 8.15633 6.34251 8.47383 6.07626 8.86758C5.81376 9.25633 5.49376 9.32758 5.26376 9.17258C5.03376 9.01758 4.905 8.68883 5.18 8.28133C5.44875 7.88383 5.825 7.84633 6.055 8.00133Z" fill="#01579B"/>
<path d="M5.9651 8.79292C6.11807 8.56801 6.10557 8.29284 5.93717 8.17831C5.76877 8.06378 5.50825 8.15325 5.35528 8.37816C5.20231 8.60307 5.21482 8.87825 5.38322 8.99278C5.55162 9.10731 5.81213 9.01784 5.9651 8.79292Z" fill="#B3E5FC"/>
<mask id="mask1_25_11577" style="mask-type:luminance" maskUnits="userSpaceOnUse" x="5" y="8" width="2" height="2">
<path d="M5.9651 8.79292C6.11807 8.56801 6.10557 8.29284 5.93717 8.17831C5.76877 8.06378 5.50825 8.15325 5.35528 8.37816C5.20231 8.60307 5.21482 8.87825 5.38322 8.99278C5.55162 9.10731 5.81213 9.01784 5.9651 8.79292Z" fill="white"/>
</mask>
<g mask="url(#mask1_25_11577)">
<path d="M6.025 9.19242L5.43375 8.17867L5.50625 7.79492L6.0975 8.80867L6.025 9.19242Z" fill="white"/>
</g>
<path d="M5.43626 9.19995L5.11751 9.6712L4.88251 9.51245L5.20126 9.0412L5.43626 9.19995ZM6.02876 7.48245C6.18626 7.66995 6.19876 7.90495 6.14876 8.14495L5.91376 7.98745C6.00251 7.79245 5.98501 7.5712 5.79376 7.32495L6.02876 7.48245ZM3.74501 10.8637C3.97876 10.9387 4.20126 10.8625 4.40501 10.725L4.17001 10.5675C4.02251 10.7237 3.81001 10.79 3.51001 10.7062L3.74501 10.8637Z" fill="#01579B"/>
<path d="M2.26251 7.3876C2.26251 7.3876 2.24376 7.41385 2.23626 7.4251C2.22876 7.43635 2.21251 7.4626 2.21251 7.4626C1.33626 8.92385 2.03501 9.9626 2.54876 10.3938C3.11876 10.8726 3.63001 11.1026 3.63001 11.1026C3.63001 11.1026 3.62001 11.0626 3.61376 10.9976C3.60626 10.9276 3.61876 10.8639 3.61876 10.8639C3.61876 10.8639 3.43876 10.1713 3.52876 9.6026C3.62126 9.02135 4.25251 8.07635 4.69126 7.79885C5.15626 7.5051 5.42501 7.37635 5.97126 7.3451C5.97126 7.3451 6.02626 7.30885 6.09376 7.2876C6.15751 7.2676 6.19751 7.26135 6.19751 7.26135C6.19751 7.26135 5.77251 6.9076 5.11751 6.55135C4.62001 6.28135 3.32626 5.9976 2.26251 7.3876Z" fill="url(#paint1_linear_25_11577)"/>
<path d="M5.82625 9.51128C5.82125 9.51503 5.81625 9.52003 5.81125 9.52503L5.58125 9.88753C5.57875 9.89378 5.57625 9.90003 5.575 9.90628C5.5675 9.94753 5.59 9.98753 5.63625 9.99503C5.6825 10.0025 5.83 9.99503 5.9225 9.84878C6.015 9.70378 5.95875 9.56628 5.9325 9.52753C5.90625 9.49003 5.86 9.48628 5.82625 9.51128Z" fill="#E59600"/>
<path d="M6.50261 10.2666C6.63479 10.0904 6.65556 9.88281 6.54899 9.80284C6.44242 9.72286 6.24887 9.80082 6.11669 9.97697C5.98451 10.1531 5.96374 10.3607 6.07031 10.4407C6.17688 10.5207 6.37042 10.4427 6.50261 10.2666Z" fill="#795548"/>
<path d="M14 10.2476C13.1787 10.2476 12.7587 11.1463 12 11.1463C11.2425 11.1463 10.8212 10.2476 9.99999 10.2476C9.17874 10.2476 8.75874 11.1463 7.99999 11.1463C7.24124 11.1463 6.82124 10.2476 5.99999 10.2476C5.17874 10.2476 4.75749 11.1463 3.99999 11.1463C3.24249 11.1463 2.82124 10.2476 1.99999 10.2476C1.37374 10.2476 0.979993 10.7701 0.492493 11.0176V15.4713H15.4925V11.0101C15.0137 10.7601 14.6212 10.2476 14 10.2476Z" fill="#039BE5"/>
<path d="M13.9962 13.2113C13.175 13.2113 12.755 12.3125 11.9962 12.3125C11.2387 12.3125 10.8175 13.2113 9.99624 13.2113C9.17499 13.2113 8.75499 12.3125 7.99624 12.3125C7.23749 12.3125 6.81749 13.2113 5.99624 13.2113C5.17499 13.2113 4.75374 12.3125 3.99624 12.3125C3.23874 12.3125 2.81749 13.2113 1.99624 13.2113C1.37124 13.2113 0.978743 12.6913 0.492493 12.4425V15.47H15.4925V12.445C15.0125 12.695 14.6187 13.2113 13.9962 13.2113Z" fill="#29B6F6"/>
<defs>
<linearGradient id="paint0_linear_25_11577" x1="0.588369" y1="9.38231" x2="14.144" y2="9.38231" gradientUnits="userSpaceOnUse">
<stop stop-color="#FFCA28"/>
<stop offset="1" stop-color="#FFB300"/>
</linearGradient>
<linearGradient id="paint1_linear_25_11577" x1="2.56589" y1="7.82897" x2="4.29239" y2="8.7861" gradientUnits="userSpaceOnUse">
<stop stop-color="#00BFA5"/>
<stop offset="1" stop-color="#00AB94"/>
</linearGradient>
</defs>
</svg>
