<svg width="24" height="24" viewBox="0 0 24 24" fill="none" xmlns="http://www.w3.org/2000/svg">
<path d="M19.003 8.004C20.1087 8.004 21.005 7.10767 21.005 6.002C21.005 4.89633 20.1087 4 19.003 4C17.8973 4 17.001 4.89633 17.001 6.002C17.001 7.10767 17.8973 8.004 19.003 8.004Z" fill="white" fill-opacity="1"/>
<path d="M18.875 13.2189C18.308 13.6719 17.897 13.9999 16.997 13.9999C16.097 13.9999 15.709 13.6889 15.121 13.2189C14.441 12.6759 13.596 11.9999 11.994 11.9999C10.392 11.9999 9.549 12.6759 8.87 13.2189C8.282 13.6889 7.895 13.9999 6.995 13.9999C6.097 13.9999 5.709 13.6889 5.122 13.2199C4.443 12.6759 3.6 11.9999 2 11.9999V13.9999C2.897 13.9999 3.285 14.3109 3.872 14.7799C4.551 15.3239 5.395 15.9999 6.995 15.9999C8.595 15.9999 9.441 15.3239 10.12 14.7799C10.707 14.3099 11.096 13.9999 11.994 13.9999C12.894 13.9999 13.305 14.3279 13.872 14.7809C14.551 15.3239 15.396 15.9999 16.997 15.9999C18.599 15.9999 19.444 15.3239 20.124 14.7809C20.712 14.3109 21.101 13.9999 22 13.9999V11.9999C20.399 11.9999 19.554 12.6759 18.875 13.2189ZM16.997 18.9999C16.098 18.9999 15.709 18.6889 15.121 18.2189C14.441 17.6759 13.596 16.9999 11.994 16.9999C10.392 16.9999 9.549 17.6759 8.87 18.2189C8.282 18.6889 7.895 18.9999 6.995 18.9999C6.097 18.9999 5.709 18.6889 5.122 18.2199C4.443 17.6759 3.6 16.9999 2 16.9999V18.9999C2.897 18.9999 3.285 19.3109 3.872 19.7799C4.551 20.3239 5.395 20.9999 6.995 20.9999C8.595 20.9999 9.441 20.3239 10.12 19.7799C10.707 19.3099 11.096 18.9999 11.994 18.9999C12.894 18.9999 13.305 19.3279 13.872 19.7809C14.551 20.3239 15.396 20.9999 16.997 20.9999C18.599 20.9999 19.444 20.3239 20.124 19.7809C20.712 19.3109 21.101 18.9999 22 18.9999V16.9999C20.399 16.9999 19.554 17.6759 18.875 18.2189C18.308 18.6719 17.897 18.9999 16.997 18.9999ZM11 5.41891L13.104 7.52291L11.047 10.0929C11.333 10.0369 11.643 9.99991 11.994 9.99991C13.596 9.99991 14.441 10.6759 15.121 11.2189C15.709 11.6889 16.098 11.9999 16.997 11.9999C17.897 11.9999 18.308 11.6719 18.875 11.2189C19.007 11.1139 19.149 11.0019 19.298 10.8929L17.202 8.80291L17.207 8.79791L11.707 3.29791C11.5195 3.11044 11.2652 3.00513 11 3.00513C10.7348 3.00513 10.4805 3.11044 10.293 3.29791L6.293 7.29791L7.707 8.71191L11 5.41891Z" fill="white" fill-opacity="1"/>
</svg>
