<svg width="16" height="16" viewBox="0 0 16 16" fill="none" xmlns="http://www.w3.org/2000/svg">
<path d="M8 16.0001C3.60956 16.0001 0.0376892 12.4282 0.0376892 8.03778C0.0376892 3.64735 3.60956 0.0754395 8 0.0754395C12.3904 0.0754395 15.9623 3.64731 15.9623 8.03778C15.9623 12.4282 12.3904 16.0001 8 16.0001Z" fill="#2ABA52"/>
<path d="M12.0256 8.00649C12.0256 10.0626 12.6632 11.9695 13.7506 13.5415C15.1211 12.1106 15.9644 10.1709 15.9644 8.03778C15.9644 5.89165 15.1106 3.94143 13.7252 2.50806C12.6532 4.07299 12.0256 5.96634 12.0256 8.00649ZM0.0353394 8.03778C0.0353394 10.1709 0.878621 12.1106 2.24915 13.5415C3.33659 11.9695 3.97415 10.0626 3.97415 8.00649C3.97415 5.96634 3.34653 4.07296 2.2745 2.50806C0.889152 3.94143 0.0353394 5.89165 0.0353394 8.03778Z" fill="#B4D99A"/>
<path d="M12.7579 8.03778C12.7579 6.2529 13.274 4.54756 14.2348 3.09134C13.923 2.69903 13.5752 2.33676 13.1959 2.00928C12.7661 2.61891 12.403 3.27284 12.1127 3.95987C11.5662 5.25187 11.2891 6.62387 11.2891 8.03778C11.2891 9.45168 11.5662 10.8237 12.1127 12.1157C12.403 12.8027 12.7661 13.4567 13.1959 14.0663C13.5752 13.7388 13.923 13.3766 14.2349 12.9842C13.274 11.528 12.7579 9.82265 12.7579 8.03778ZM1.7652 3.09134C2.72604 4.54756 3.24214 6.25293 3.24214 8.03778C3.24214 9.82265 2.72601 11.528 1.76517 12.9842C2.07697 13.3766 2.42481 13.7388 2.80414 14.0663C3.23386 13.4567 3.59699 12.8027 3.88732 12.1157C4.43379 10.8237 4.71089 9.45168 4.71089 8.03778C4.71089 6.62387 4.43379 5.25187 3.88732 3.95987C3.597 3.27284 3.23388 2.61891 2.80417 2.00928C2.42484 2.33676 2.077 2.69903 1.7652 3.09134Z" fill="#E5E4DF"/>
</svg>
