<svg width="24" height="24" viewBox="0 0 24 24" fill="none" xmlns="http://www.w3.org/2000/svg">
<path fill-rule="evenodd" clip-rule="evenodd" d="M19.071 19.071C22.976 15.166 22.976 8.83399 19.071 4.92899C15.166 1.02399 8.83402 1.02399 4.92902 4.92899C1.02402 8.83399 1.02402 15.166 4.92902 19.071C8.83402 22.976 15.166 22.976 19.071 19.071ZM19.943 11.041C19.7305 9.26262 18.9252 7.60766 17.657 6.34299C16.3877 5.07022 14.7254 4.26391 12.94 4.05499L12.93 4.11099C12.5242 6.30033 11.4641 8.31517 9.88967 9.88964C8.3152 11.4641 6.30036 12.5242 4.11102 12.93L4.05502 12.94C4.26394 14.7254 5.07025 16.3877 6.34302 17.657C7.60769 18.9252 9.26265 19.7305 11.041 19.943L11.053 19.873C11.4587 17.6835 12.5187 15.6684 14.0931 14.0938C15.6676 12.5191 17.6826 11.4589 19.872 11.053L19.943 11.041ZM19.872 13.429V13.095C18.2192 13.4726 16.7065 14.3088 15.5077 15.5077C14.3089 16.7065 13.4726 18.2192 13.095 19.872H13.429C15.0318 19.5835 16.5074 18.8104 17.657 17.657C18.8105 16.5074 19.5836 15.0317 19.872 13.429ZM4.11202 10.889V10.666C4.38635 9.02749 5.16646 7.51587 6.34302 6.34299C7.51577 5.16606 9.0274 4.3856 10.666 4.11099H10.888C10.5104 5.76379 9.67418 7.27652 8.47536 8.47533C7.27655 9.67415 5.76382 10.5104 4.11102 10.888" fill="white" fill-opacity="1"/>
</svg>
