<svg width="29" height="20" viewBox="0 0 29 20" fill="none" xmlns="http://www.w3.org/2000/svg">
<rect x="0.186523" y="0.23291" width="28" height="19" rx="8" fill="var(--icons-color)"/>
<path d="M7.51181 5.50564V14.2329H5.93084V7.04399H5.87971L3.83851 8.34797V6.8991L6.00755 5.50564H7.51181ZM12.83 14.3522C12.1965 14.3522 11.634 14.2457 11.1425 14.0326C10.6539 13.8196 10.2703 13.5284 9.99192 13.159C9.71635 12.7869 9.57999 12.365 9.58283 11.8934C9.57999 11.5269 9.65953 11.1903 9.82147 10.8835C9.9834 10.5767 10.2021 10.321 10.4777 10.1164C10.7561 9.90905 11.0658 9.77694 11.4067 9.72013V9.66047C10.9578 9.56104 10.5942 9.33234 10.3158 8.97439C10.0402 8.61359 9.90385 8.1974 9.90669 7.72581C9.90385 7.27694 10.0289 6.87638 10.2817 6.5241C10.5345 6.17183 10.8811 5.89484 11.3215 5.69314C11.7618 5.48859 12.2646 5.38632 12.83 5.38632C13.3896 5.38632 13.8882 5.48859 14.3257 5.69314C14.7661 5.89484 15.1127 6.17183 15.3655 6.5241C15.6212 6.87638 15.749 7.27694 15.749 7.72581C15.749 8.1974 15.6084 8.61359 15.3271 8.97439C15.0487 9.33234 14.6894 9.56104 14.249 9.66047V9.72013C14.5899 9.77694 14.8968 9.90905 15.1695 10.1164C15.445 10.321 15.6638 10.5767 15.8257 10.8835C15.9905 11.1903 16.0729 11.5269 16.0729 11.8934C16.0729 12.365 15.9337 12.7869 15.6553 13.159C15.3769 13.5284 14.9933 13.8196 14.5047 14.0326C14.0189 14.2457 13.4607 14.3522 12.83 14.3522ZM12.83 13.1335C13.1567 13.1335 13.4408 13.0781 13.6823 12.9673C13.9237 12.8536 14.1112 12.6946 14.2448 12.49C14.3783 12.2855 14.4465 12.0497 14.4493 11.7826C14.4465 11.5042 14.374 11.2585 14.232 11.0454C14.0928 10.8295 13.901 10.6605 13.6567 10.5383C13.4152 10.4161 13.1396 10.3551 12.83 10.3551C12.5175 10.3551 12.2391 10.4161 11.9948 10.5383C11.7504 10.6605 11.5573 10.8295 11.4152 11.0454C11.276 11.2585 11.2078 11.5042 11.2107 11.7826C11.2078 12.0497 11.2732 12.2855 11.4067 12.49C11.5402 12.6917 11.7277 12.8494 11.9692 12.963C12.2135 13.0767 12.5004 13.1335 12.83 13.1335ZM12.83 9.15763C13.097 9.15763 13.3328 9.10365 13.5374 8.99569C13.7448 8.88774 13.9081 8.73717 14.0274 8.54399C14.1468 8.35081 14.2078 8.1278 14.2107 7.87496C14.2078 7.62496 14.1482 7.40621 14.0317 7.21871C13.9152 7.02836 13.7533 6.88206 13.5459 6.77979C13.3385 6.67467 13.0999 6.62211 12.83 6.62211C12.5544 6.62211 12.3115 6.67467 12.1013 6.77979C11.8939 6.88206 11.732 7.02836 11.6155 7.21871C11.5019 7.40621 11.4465 7.62496 11.4493 7.87496C11.4465 8.1278 11.5033 8.35081 11.6198 8.54399C11.7391 8.73433 11.9024 8.8849 12.1098 8.99569C12.32 9.10365 12.5601 9.15763 12.83 9.15763ZM20.0647 12.8352V6.93746H21.4028V12.8352H20.0647ZM17.7849 10.5554V9.21729H23.6826V10.5554H17.7849Z" fill="#F28406"/>
</svg>
