<svg width="30" height="30" viewBox="0 0 30 30" fill="none" xmlns="http://www.w3.org/2000/svg">
<path d="M14.865 6.48259C11.6712 3.63259 7.90246 2.59197 5.16121 4.17509C1.27496 6.41884 0.923086 13.0838 4.37496 19.0626C6.64371 22.9938 9.99309 25.6488 13.125 26.3688" fill="var(--icons-color)"/>
<path d="M14.865 6.48259C11.6712 3.63259 7.90246 2.59197 5.16121 4.17509C1.27496 6.41884 0.923086 13.0838 4.37496 19.0626C6.64371 22.9938 9.99309 25.6488 13.125 26.3688"/>
<path d="M11.4111 10.9375C7.95922 16.9162 8.31109 23.5812 12.1973 25.825C16.0836 28.0687 22.0323 25.0412 25.4842 19.0625C28.9361 13.0837 28.5842 6.41873 24.6973 4.17498C20.8123 1.93123 14.863 4.95873 11.4111 10.9375Z" fill="var(--icons-color)"/>
</svg>
