<svg width="40" height="40" viewBox="0 0 40 40" fill="none" xmlns="http://www.w3.org/2000/svg">
<path d="M5.49491 13.3073C4.09574 13.5852 3.64115 15.2839 4.74299 16.1598C7.38844 18.2628 10.2535 20.2098 11.5839 21.0924C12.1329 21.4545 12.806 21.5903 13.4631 21.4717L18.0829 20.6498L15.0615 24.2403C14.6303 24.7499 14.4113 25.4006 14.4501 26.0568C14.5493 27.6504 14.8034 31.1048 15.3014 34.4476C15.509 35.8397 17.2072 36.2949 18.1478 35.2227C21.3086 31.6208 27.7825 23.6844 32.0686 14.6238C32.2216 14.305 32.2953 13.956 32.2834 13.6062C32.2715 13.2564 32.1743 12.9163 32.0002 12.6147C31.8261 12.3131 31.5801 12.0589 31.2831 11.8737C30.9862 11.6885 30.6471 11.5778 30.2945 11.5509C20.3047 10.7325 10.195 12.3713 5.49491 13.3073Z" fill="var(--icons-color)"/>
</svg>
