<svg width="40" height="40" viewBox="0 0 40 40" fill="none" xmlns="http://www.w3.org/2000/svg">
<path d="M5.58948 11.803C4.12251 12.0944 3.64591 13.8755 4.80113 14.7938C7.57475 16.9987 10.5786 19.04 11.9735 19.9654C12.5491 20.345 13.2548 20.4874 13.9437 20.3631L18.7874 19.5014L15.6196 23.2658C15.1675 23.8001 14.9379 24.4823 14.9786 25.1703C15.0826 26.8411 15.349 30.4628 15.8711 33.9676C16.0888 35.4272 17.8693 35.9045 18.8554 34.7803C22.1694 31.0039 28.9569 22.6829 33.4507 13.1833C33.6111 12.8491 33.6884 12.4832 33.6759 12.1165C33.6634 11.7498 33.5615 11.3932 33.379 11.0769C33.1964 10.7607 32.9385 10.4942 32.6272 10.3C32.3158 10.1059 31.9603 9.98975 31.5907 9.96158C21.1168 9.10357 10.5172 10.8218 5.58948 11.803Z" fill="var(--icons-color)"/>
</svg>
