<svg width="37" height="36" viewBox="0 0 37 36" fill="none" xmlns="http://www.w3.org/2000/svg">
<path fill-rule="evenodd" clip-rule="evenodd" d="M24.5 13.5C24.5 15.0913 23.8679 16.6174 22.7426 17.7426C21.6174 18.8679 20.0913 19.5 18.5 19.5C16.9087 19.5 15.3826 18.8679 14.2574 17.7426C13.1321 16.6174 12.5 15.0913 12.5 13.5C12.5 11.9087 13.1321 10.3826 14.2574 9.25736C15.3826 8.13214 16.9087 7.5 18.5 7.5C20.0913 7.5 21.6174 8.13214 22.7426 9.25736C23.8679 10.3826 24.5 11.9087 24.5 13.5ZM21.5 13.5C21.5 14.2956 21.1839 15.0587 20.6213 15.6213C20.0587 16.1839 19.2956 16.5 18.5 16.5C17.7044 16.5 16.9413 16.1839 16.3787 15.6213C15.8161 15.0587 15.5 14.2956 15.5 13.5C15.5 12.7044 15.8161 11.9413 16.3787 11.3787C16.9413 10.8161 17.7044 10.5 18.5 10.5C19.2956 10.5 20.0587 10.8161 20.6213 11.3787C21.1839 11.9413 21.5 12.7044 21.5 13.5Z" fill="white"/>
<path fill-rule="evenodd" clip-rule="evenodd" d="M18.5 1.5C9.3875 1.5 2 8.8875 2 18C2 27.1125 9.3875 34.5 18.5 34.5C27.6125 34.5 35 27.1125 35 18C35 8.8875 27.6125 1.5 18.5 1.5ZM5 18C5 21.135 6.0695 24.021 7.862 26.313C9.12116 24.6602 10.7452 23.3207 12.6075 22.3991C14.4697 21.4775 16.5197 20.9987 18.5975 21C20.6486 20.9976 22.6731 21.4636 24.5167 22.3626C26.3603 23.2615 27.9743 24.5695 29.2355 26.187C30.5352 24.4824 31.4103 22.4928 31.7883 20.3829C32.1664 18.2729 32.0366 16.1033 31.4097 14.0535C30.7828 12.0037 29.6768 10.1326 28.1832 8.59506C26.6896 7.05754 24.8514 5.89779 22.8206 5.21176C20.7898 4.52574 18.6248 4.33316 16.5048 4.64996C14.3848 4.96676 12.3707 5.78384 10.6292 7.03358C8.88762 8.28332 7.46872 9.92981 6.48984 11.8368C5.51097 13.7438 5.00027 15.8565 5 18ZM18.5 31.5C15.4009 31.505 12.3952 30.4388 9.992 28.482C10.9592 27.0969 12.2468 25.9661 13.7451 25.1857C15.2434 24.4053 16.9081 23.9985 18.5975 24C20.2658 23.9985 21.9103 24.3952 23.3945 25.157C24.8787 25.9188 26.1596 27.0237 27.131 28.38C24.7092 30.4005 21.654 31.5049 18.5 31.5Z" fill="white"/>
</svg>
