<svg width="32" height="32" viewBox="0 0 32 32" fill="none" xmlns="http://www.w3.org/2000/svg">
<path d="M25.4266 16.0132C25.6002 16.0377 25.7673 16.0962 25.9182 16.1854C26.0692 16.2745 26.2011 16.3926 26.3063 16.5328C26.4116 16.673 26.4882 16.8326 26.5317 17.0024C26.5752 17.1722 26.5848 17.349 26.56 17.5225C26.2258 19.8345 25.1422 21.973 23.4755 23.6099C21.8088 25.2467 19.651 26.2915 17.3333 26.5838V27.9998C17.3333 28.3535 17.1928 28.6926 16.9428 28.9426C16.6927 29.1927 16.3536 29.3332 16 29.3332C15.6464 29.3332 15.3072 29.1927 15.0572 28.9426C14.8071 28.6926 14.6666 28.3535 14.6666 27.9998V26.5838C12.3493 26.291 10.1919 25.2461 8.52553 23.6093C6.85913 21.9725 5.77566 19.8343 5.44131 17.5225C5.3911 17.1724 5.48201 16.8167 5.69405 16.5337C5.90609 16.2506 6.22189 16.0634 6.57198 16.0132C6.92206 15.963 7.27776 16.0539 7.56081 16.2659C7.84387 16.478 8.0311 16.7938 8.08131 17.1438C8.35707 19.0473 9.30923 20.7877 10.7635 22.0465C12.2177 23.3052 14.0767 23.998 16 23.998C17.9233 23.998 19.7823 23.3052 21.2365 22.0465C22.6907 20.7877 23.6429 19.0473 23.9186 17.1438C23.9435 16.9705 24.0022 16.8037 24.0915 16.6531C24.1808 16.5024 24.2989 16.3708 24.4391 16.2659C24.5793 16.1609 24.7387 16.0845 24.9084 16.0411C25.0781 15.9978 25.2533 15.9883 25.4266 16.0132ZM16 2.6665C17.7681 2.6665 19.4638 3.36888 20.714 4.61913C21.9643 5.86937 22.6666 7.56506 22.6666 9.33317V15.9998C22.6666 17.7679 21.9643 19.4636 20.714 20.7139C19.4638 21.9641 17.7681 22.6665 16 22.6665C14.2319 22.6665 12.5362 21.9641 11.2859 20.7139C10.0357 19.4636 9.33331 17.7679 9.33331 15.9998V9.33317C9.33331 7.56506 10.0357 5.86937 11.2859 4.61913C12.5362 3.36888 14.2319 2.6665 16 2.6665Z" fill="var(--icons-color)"/>
</svg>
