<svg width="24" height="26" viewBox="0 0 24 26" fill="none" xmlns="http://www.w3.org/2000/svg">
<path d="M13.8962 7.74447L8.42423 13.2869C7.90405 13.8184 7.61823 14.5448 7.62966 15.3081C7.64526 16.0803 7.95307 16.8154 8.48711 17.3559C9.02302 17.9036 9.7447 18.2181 10.4921 18.2314C10.858 18.2394 11.2217 18.1716 11.5619 18.0322C11.902 17.8927 12.2118 17.6844 12.4728 17.4194L17.9433 11.8769C18.4594 11.3495 18.8664 10.7192 19.1396 10.0243C19.4128 9.32939 19.5464 8.5844 19.5325 7.83453C19.5024 6.29008 18.8878 4.81928 17.8204 3.73749C16.7501 2.64326 15.3131 2.01675 13.8076 1.98795C13.0766 1.97288 12.35 2.10847 11.6703 2.38681C10.9907 2.66516 10.3715 3.08066 9.84903 3.60905L4.37422 9.15296C3.60067 9.94455 2.99068 10.8901 2.58119 11.9324C2.1717 12.9746 1.97124 14.0919 1.99194 15.2166C2.03796 17.5327 2.96035 19.738 4.56143 21.3599C6.16609 23.0008 8.32046 23.9408 10.5779 23.985C11.6748 24.0086 12.7652 23.8058 13.7853 23.3885C14.8054 22.9712 15.7346 22.3478 16.5185 21.5548L21.9905 16.0094" stroke="var(--icons-color)" stroke-width="3" stroke-linecap="round" stroke-linejoin="round"/>
</svg>
