<svg width="38" height="36" viewBox="0 0 38 36" fill="none" xmlns="http://www.w3.org/2000/svg">
<path fill-rule="evenodd" clip-rule="evenodd" d="M30.4522 21.2221C30.7818 21.2221 31.1048 21.3125 31.3845 21.483C31.6642 21.6535 31.8894 21.8972 32.0344 22.1866L32.119 22.3881L32.348 23.039C32.5898 23.7317 32.9793 24.3662 33.4908 24.9007C34.0023 25.4351 34.6241 25.8572 35.3151 26.139L35.641 26.2596L36.307 26.4818C36.6368 26.5917 36.9258 26.7948 37.1376 27.0654C37.3493 27.336 37.4742 27.6618 37.4964 28.0017C37.5187 28.3417 37.4373 28.6804 37.2626 28.9751C37.0879 29.2699 36.8277 29.5073 36.5149 29.6575L36.307 29.7402L35.641 29.9641C34.9324 30.2003 34.2832 30.5811 33.7365 31.0811C33.1898 31.5811 32.7579 32.1889 32.4696 32.8643L32.3463 33.1829L32.119 33.8339C32.0065 34.1562 31.7987 34.4388 31.5219 34.6457C31.2451 34.8527 30.9117 34.9747 30.564 34.9965C30.2162 35.0182 29.8696 34.9387 29.5681 34.7679C29.2666 34.5972 29.0237 34.3428 28.87 34.0371L28.7855 33.8339L28.5564 33.1829C28.3147 32.4902 27.9252 31.8557 27.4137 31.3213C26.9022 30.7868 26.2803 30.3647 25.5894 30.0829L25.2634 29.9623L24.5974 29.7402C24.2676 29.6302 23.9786 29.4271 23.7669 29.1565C23.5552 28.886 23.4303 28.5601 23.408 28.2202C23.3858 27.8803 23.4672 27.5415 23.6419 27.2468C23.8166 26.9521 24.0768 26.7146 24.3895 26.5644L24.5974 26.4818L25.2634 26.2579C25.972 26.0216 26.6212 25.6408 27.1679 25.1408C27.7147 24.6409 28.1465 24.0331 28.4348 23.3577L28.5582 23.039L28.7855 22.3881C28.9042 22.0481 29.1287 21.7529 29.4276 21.5438C29.7264 21.3347 30.0847 21.2223 30.4522 21.2221ZM32.2141 4C33.1031 3.99973 33.9594 4.32792 34.6113 4.91879C35.2631 5.50967 35.6624 6.31955 35.7291 7.18609L35.7379 7.44442V16.0555C35.7374 16.4944 35.5655 16.9166 35.2572 17.2358C34.9489 17.555 34.5276 17.7471 34.0793 17.7728C33.631 17.7985 33.1895 17.656 32.8452 17.3742C32.5008 17.0925 32.2795 16.6929 32.2264 16.257L32.2141 16.0555V11.9825L19.8104 22.0867C19.3711 22.4442 18.8252 22.6529 18.2543 22.6815C17.6835 22.71 17.1185 22.5569 16.6442 22.2451L16.4275 22.0867L4.02379 11.9825V28.111H18.119C18.568 28.1114 19 28.2795 19.3265 28.5809C19.653 28.8822 19.8495 29.294 19.8759 29.7322C19.9022 30.1704 19.7563 30.6019 19.4681 30.9385C19.1799 31.2752 18.771 31.4915 18.3251 31.5433L18.119 31.5554H4.02379C3.13478 31.5557 2.27852 31.2275 1.62665 30.6366C0.974779 30.0457 0.575486 29.2358 0.50881 28.3693L0.5 28.111V7.44442C0.499719 6.57544 0.835476 5.73846 1.43997 5.10127C2.04446 4.46409 2.873 4.07379 3.75951 4.00861L4.02379 4H32.2141ZM30.4522 26.7263C30.0354 27.239 29.5602 27.7036 29.0357 28.111C29.5619 28.5197 30.0341 28.9813 30.4522 29.4956C30.8692 28.9813 31.3414 28.5197 31.8688 28.111C31.3443 27.7036 30.869 27.239 30.4522 26.7263ZM32.2141 7.44442H4.02379V7.49953L18.119 18.9798L32.2141 7.49953V7.44442Z" fill="var(--icons-color)"/>
</svg>
