<svg width="36" height="36" viewBox="0 0 36 36" fill="none" xmlns="http://www.w3.org/2000/svg">
<path fill-rule="evenodd" clip-rule="evenodd" d="M23.9994 33.9988C21.7809 33.9985 19.6254 33.2603 17.8724 31.9005C16.1194 30.5407 14.8684 28.6365 14.3164 26.4877C13.7644 24.3389 13.9427 22.0675 14.8232 20.0312C15.7038 17.9948 17.2365 16.3092 19.1802 15.2395C21.1239 14.1699 23.3681 13.7771 25.5596 14.123C27.751 14.4688 29.7652 15.5337 31.2851 17.1499C32.8049 18.7661 33.7441 20.8419 33.9547 23.0504C34.1653 25.259 33.6355 27.4749 32.4485 29.3492L33.9984 33.9988L29.3489 32.4489C27.7485 33.4618 25.8934 33.9992 23.9994 33.9988Z" stroke="var(--icons-color)" stroke-width="3" stroke-linecap="round" stroke-linejoin="round"/>
<path d="M18.8006 4.66609C19.811 5.60291 20.6168 6.73839 21.1677 8.00132C11.7019 9.60242 8.44586 17.4463 8.00108 21.168L6.65122 20.4501L2.0017 22L3.55154 17.3504C2.81439 16.1863 2.32573 14.8825 2.11619 13.5207C1.90666 12.1589 1.98079 10.7684 2.33392 9.4366C2.68705 8.10478 3.31157 6.86029 4.16831 5.78119C5.02504 4.70209 6.09551 3.81167 7.31258 3.16576C8.52964 2.51985 9.86704 2.13239 11.2409 2.0277C12.6148 1.923 13.9954 2.10331 15.2963 2.55733C16.5972 3.01135 17.7902 3.72928 18.8006 4.66609Z" stroke="var(--icons-color)" stroke-width="3" stroke-linecap="round" stroke-linejoin="round"/>
</svg>
