<svg width="43" height="43" viewBox="0 0 43 43" fill="none" xmlns="http://www.w3.org/2000/svg">
<path d="M21.5 35C18.35 35 15.5625 34.044 13.1375 32.132C10.7125 30.22 9.1375 27.776 8.4125 24.8C8.3125 24.425 8.3875 24.0815 8.6375 23.7695C8.8875 23.4575 9.225 23.276 9.65 23.225C10.05 23.175 10.4125 23.25 10.7375 23.45C11.0625 23.65 11.2875 23.95 11.4125 24.35C12.0125 26.6 13.25 28.4375 15.125 29.8625C17 31.2875 19.125 32 21.5 32C24.425 32 26.9065 30.9815 28.9445 28.9445C30.9825 26.9075 32.001 24.426 32 21.5C31.999 18.574 30.9805 16.093 28.9445 14.057C26.9085 12.021 24.427 11.002 21.5 11C19.775 11 18.1625 11.4 16.6625 12.2C15.1625 13 13.9 14.1 12.875 15.5H15.5C15.925 15.5 16.2815 15.644 16.5695 15.932C16.8575 16.22 17.001 16.576 17 17C16.999 17.424 16.855 17.7805 16.568 18.0695C16.281 18.3585 15.925 18.502 15.5 18.5H9.5C9.075 18.5 8.719 18.356 8.432 18.068C8.145 17.78 8.001 17.424 8 17V11C8 10.575 8.144 10.219 8.432 9.932C8.72 9.645 9.076 9.501 9.5 9.5C9.924 9.499 10.2805 9.643 10.5695 9.932C10.8585 10.221 11.002 10.577 11 11V13.025C12.275 11.425 13.8315 10.1875 15.6695 9.3125C17.5075 8.4375 19.451 8 21.5 8C23.375 8 25.1315 8.3565 26.7695 9.0695C28.4075 9.7825 29.8325 10.7445 31.0445 11.9555C32.2565 13.1665 33.219 14.5915 33.932 16.2305C34.645 17.8695 35.001 19.626 35 21.5C34.999 23.374 34.643 25.1305 33.932 26.7695C33.221 28.4085 32.2585 29.8335 31.0445 31.0445C29.8305 32.2555 28.4055 33.218 26.7695 33.932C25.1335 34.646 23.377 35.002 21.5 35ZM23 20.9L26.75 24.65C27.025 24.925 27.1625 25.275 27.1625 25.7C27.1625 26.125 27.025 26.475 26.75 26.75C26.475 27.025 26.125 27.1625 25.7 27.1625C25.275 27.1625 24.925 27.025 24.65 26.75L20.45 22.55C20.3 22.4 20.1875 22.2315 20.1125 22.0445C20.0375 21.8575 20 21.6635 20 21.4625V15.5C20 15.075 20.144 14.719 20.432 14.432C20.72 14.145 21.076 14.001 21.5 14C21.924 13.999 22.2805 14.143 22.5695 14.432C22.8585 14.721 23.002 15.077 23 15.5V20.9Z" fill="var(--icons-color)"/>
</svg>
