<svg width="32" height="32" viewBox="0 0 32 32" fill="none" xmlns="http://www.w3.org/2000/svg">
<path fill-rule="evenodd" clip-rule="evenodd" d="M3.66666 16.6668V15.3335C3.66666 10.9508 3.66666 8.75883 4.87733 7.28283C5.09879 7.01303 5.3462 6.76562 5.616 6.54416C7.09333 5.3335 9.28266 5.3335 13.6667 5.3335C18.0493 5.3335 20.2413 5.3335 21.7173 6.54416C21.9871 6.76562 22.2345 7.01303 22.456 7.28283C23.392 8.42283 23.604 9.99083 23.652 12.6668L24.5453 12.2268C27.1387 10.9308 28.436 10.2815 29.3853 10.8682C30.3347 11.4548 30.3333 12.9068 30.3333 15.8055V16.1948C30.3333 19.0948 30.3333 20.5455 29.3853 21.1322C28.436 21.7188 27.1387 21.0695 24.5453 19.7722L23.652 19.3335C23.604 22.0095 23.392 23.5775 22.456 24.7175C22.2345 24.9873 21.9871 25.2347 21.7173 25.4562C20.24 26.6668 18.0507 26.6668 13.6667 26.6668C9.284 26.6668 7.092 26.6668 5.616 25.4562C5.3462 25.2347 5.09879 24.9873 4.87733 24.7175C3.66666 23.2402 3.66666 21.0508 3.66666 16.6668ZM19.08 12.7468C19.2742 12.5631 19.4295 12.3423 19.5369 12.0975C19.6443 11.8527 19.7015 11.5888 19.7051 11.3215C19.7088 11.0542 19.6588 10.7889 19.5582 10.5412C19.4575 10.2936 19.3083 10.0686 19.1192 9.87962C18.9301 9.69063 18.7051 9.54147 18.4574 9.44095C18.2097 9.34043 17.9443 9.29058 17.677 9.29436C17.4097 9.29814 17.1459 9.35547 16.9011 9.46296C16.6564 9.57044 16.4356 9.72591 16.252 9.92016C15.8879 10.2975 15.6865 10.8028 15.6913 11.3272C15.6961 11.8516 15.9067 12.3532 16.2777 12.7238C16.6487 13.0944 17.1504 13.3045 17.6748 13.3088C18.1992 13.3132 18.703 13.1113 19.08 12.7468Z" fill="var(--icons-color)"/>
</svg>
