<svg width="18" height="18" viewBox="0 0 18 18" fill="none" xmlns="http://www.w3.org/2000/svg">
<path d="M9.49998 13.6273C9.49998 13.6273 13.5 13.5209 14.3255 11.5899C14.86 10.3394 14.021 6.81285 14.021 4.62485C14.021 3.88435 13.4375 3.49985 12.313 3.49985H5.06448C4.50198 3.49985 3.39998 3.36885 3.39998 4.56235C3.39998 6.70435 2.51748 10.2329 3.08298 11.4699C4.02098 13.5209 7.99998 13.6273 7.99998 13.6273V15.1889C7.99998 15.1889 5.70798 16.3589 5.25098 16.6304C4.75898 16.9114 5.08598 17.3613 5.28248 17.4388C5.61048 17.5678 6.40898 17.9899 8.67248 17.9899C10.993 17.9899 11.7735 17.5328 12.055 17.4388C12.1635 17.4028 12.7285 16.9728 12.0605 16.5773C10.8715 15.8734 9.49998 15.1889 9.49998 15.1889V13.6273Z" fill="#8899A6"/>
<path d="M14 4.22092C14 5.03142 12.7265 5.68842 8.68851 5.68842C4.65051 5.68842 3.37701 5.03142 3.37701 4.22092C3.37701 3.40992 4.65051 2.75342 8.68851 2.75342C12.7265 2.75342 14 3.41042 14 4.22092Z" fill="#CCD6DD"/>
<path d="M4.22903 4.29164C5.25003 9.04164 3.02053 11.0831 5.27053 11.8751C7.98653 12.8306 9.54153 12.6716 11.9995 11.8751C14.2495 11.1461 12.7495 8.43764 13.062 4.47914C13.143 3.46064 4.22903 4.29164 4.22903 4.29164Z" fill="#CCD6DD"/>
<path d="M4.52102 7.2915C4.47952 7.833 3.97602 10.356 4.20852 10.9375C4.45852 11.5625 5.08352 12.5625 8.66702 12.5625C11.292 12.5625 12.9585 11.771 13.2295 10.771C13.465 9.901 13.1045 7.9795 13.063 7.271" fill="#F4900C"/>
<path d="M8.75 8C11.0972 8 13 7.66421 13 7.25C13 6.83579 11.0972 6.5 8.75 6.5C6.40279 6.5 4.5 6.83579 4.5 7.25C4.5 7.66421 6.40279 8 8.75 8Z" fill="#FFCC4D"/>
<path d="M12.3725 2.45068C12.3725 2.45068 9.41152 9.40618 9.25702 9.72518C9.06852 10.1152 9.55752 10.6622 9.99202 9.96668C10.426 9.27118 13.3625 3.11768 13.3625 3.11768L12.3725 2.45068Z" fill="#C1694F"/>
<path d="M8.65497 5.83753C6.50947 5.83753 4.81897 5.33403 4.18347 5.03603C4.0634 4.97974 3.9706 4.87805 3.9255 4.75334C3.8804 4.62863 3.88668 4.49111 3.94297 4.37103C3.99927 4.25096 4.10095 4.15816 4.22566 4.11306C4.35038 4.06795 4.4879 4.07424 4.60797 4.13053C4.64497 4.14803 8.46147 5.76853 12.884 4.07503C12.9453 4.05156 13.0107 4.04039 13.0763 4.04218C13.1419 4.04396 13.2066 4.05865 13.2665 4.08542C13.3265 4.11218 13.3806 4.1505 13.4258 4.19818C13.4709 4.24585 13.5062 4.30196 13.5297 4.36328C13.5532 4.42461 13.5644 4.48996 13.5626 4.5556C13.5608 4.62124 13.5461 4.68589 13.5193 4.74586C13.4926 4.80582 13.4543 4.85992 13.4066 4.90508C13.3589 4.95024 13.3028 4.98556 13.2415 5.00903C11.6305 5.62603 10.047 5.83753 8.65497 5.83753Z" fill="white"/>
<path d="M10.349 7.19287L10.0185 7.96487C10.367 7.95487 10.742 7.92237 11.0605 7.87837L11.2985 7.39337C10.99 7.39887 10.6805 7.33537 10.349 7.19287Z" fill="#FFAC33"/>
<path d="M9.25702 9.72507C9.06852 10.1151 9.55752 10.6621 9.99202 9.96657C10.136 9.73557 10.5565 8.90207 11.053 7.89307C10.7585 7.92557 10.3755 7.95357 10.0145 7.97357C9.76636 8.55927 9.51385 9.14312 9.25702 9.72507Z" fill="#CC6F00"/>
<path d="M17.199 4.81199C16.689 4.02099 14.5005 0.964992 14.4065 0.833492C14.3602 0.768942 14.2991 0.71636 14.2284 0.680101C14.1577 0.643841 14.0794 0.62495 14 0.624992C13.2705 0.624992 11.6185 0.616992 10.3835 0.610992C9.64297 0.607492 9.05197 0.604492 8.89597 0.604492C8.57197 0.604492 8.30597 0.816992 8.23397 1.13399C8.06597 1.87399 8.99797 3.27949 12.18 4.80549C14.288 5.81599 15.5105 6.02849 16.165 6.02849C16.902 6.02849 17.1845 5.75299 17.2915 5.52199C17.3985 5.28899 17.3635 5.02649 17.199 4.81199Z" fill="#77B255"/>
<path d="M13.0705 5.20562C14.6385 5.86962 15.6095 6.02812 16.1645 6.02812H16.165C16.902 6.02812 17.184 5.75262 17.291 5.52162C17.3985 5.28912 17.364 5.02662 17.199 4.81212C16.8725 4.30562 15.8585 2.87162 15.146 1.87012C15.552 3.15862 15.7015 5.10362 13.0705 5.20562Z" fill="#5C913B"/>
<path d="M14.094 1.688C14.5601 1.688 14.938 1.31013 14.938 0.844C14.938 0.377872 14.5601 0 14.094 0C13.6279 0 13.25 0.377872 13.25 0.844C13.25 1.31013 13.6279 1.688 14.094 1.688Z" fill="#3E721D"/>
</svg>
