<svg width="24" height="24" viewBox="0 0 24 24" fill="none" xmlns="http://www.w3.org/2000/svg">
<path fill-rule="evenodd" clip-rule="evenodd" d="M15.89 3.16094C16.0775 2.97377 16.3316 2.86865 16.5965 2.86865C16.8614 2.86865 17.1155 2.97377 17.303 3.16094L20.125 5.98294L20.132 5.98894L20.138 5.99594L20.838 6.69594C21.0203 6.88441 21.1213 7.13694 21.1192 7.39915C21.1171 7.66135 21.0121 7.91224 20.8268 8.09778C20.6416 8.28332 20.3908 8.38866 20.1286 8.39113C19.8664 8.39359 19.6138 8.29297 19.425 8.11094L18.01 9.52494L19.778 11.2929C19.9602 11.4815 20.061 11.7341 20.0587 11.9963C20.0564 12.2585 19.9513 12.5093 19.7658 12.6948C19.5804 12.8802 19.3296 12.9853 19.0674 12.9876C18.8052 12.9899 18.5526 12.8891 18.364 12.7069L17.657 11.9999L12 17.6569C11.7214 17.9356 11.3907 18.1566 11.0267 18.3074C10.6627 18.4582 10.2725 18.5358 9.87852 18.5358C9.48452 18.5358 9.09437 18.4582 8.73036 18.3074C8.36635 18.1566 8.03561 17.9356 7.75702 17.6569L4.63702 20.7779C4.44952 20.9656 4.19515 21.071 3.92988 21.0711C3.66461 21.0712 3.41016 20.9659 3.22252 20.7784C3.03488 20.5909 2.92942 20.3366 2.92932 20.0713C2.92923 19.806 3.03452 19.5516 3.22202 19.3639L6.34302 16.2419C5.78061 15.6794 5.46466 14.9164 5.46466 14.1209C5.46466 13.3254 5.78061 12.5625 6.34302 11.9999L12 6.34294L11.293 5.63594C11.1109 5.44734 11.0101 5.19473 11.0124 4.93254C11.0146 4.67034 11.1198 4.41953 11.3052 4.23412C11.4906 4.04871 11.7414 3.94354 12.0036 3.94127C12.2658 3.93899 12.5184 4.03978 12.707 4.22194L14.475 5.98894L15.889 4.57494C15.7016 4.38741 15.5962 4.1331 15.5962 3.86794C15.5962 3.60278 15.7016 3.34847 15.889 3.16094M18.009 6.69694L16.596 8.10994L15.889 7.40294L17.303 5.98894L18.009 6.69694ZM9.17102 13.4139L8.46402 12.7069L9.87802 11.2929L10.585 11.9999C10.7672 12.1885 10.868 12.4411 10.8657 12.7033C10.8634 12.9655 10.7583 13.2163 10.5728 13.4018C10.3874 13.5872 10.1366 13.6923 9.87442 13.6946C9.61223 13.6969 9.35963 13.5961 9.17102 13.4139ZM11.291 11.2929L10.585 10.5859L12 9.17194L12.707 9.87894C12.8025 9.97119 12.8787 10.0815 12.9311 10.2035C12.9835 10.3255 13.0111 10.4568 13.0123 10.5895C13.0134 10.7223 12.9881 10.854 12.9378 10.9769C12.8876 11.0998 12.8133 11.2114 12.7194 11.3053C12.6255 11.3992 12.5139 11.4735 12.391 11.5238C12.2681 11.574 12.1364 11.5993 12.0036 11.5982C11.8708 11.597 11.7396 11.5694 11.6176 11.517C11.4956 11.4646 11.3853 11.3884 11.293 11.2929" fill="white" fill-opacity="1"/>
</svg>
