<svg width="16" height="16" viewBox="0 0 16 16" fill="none" xmlns="http://www.w3.org/2000/svg">
<path d="M14.7943 6.4256L11.4032 9.81666L9.70763 11.5122L4.47229 6.27685L6.16782 4.58132L9.55891 1.19022C11.0046 -0.255465 13.3486 -0.255465 14.7943 1.19022C16.2399 2.63591 16.2399 4.97988 14.7943 6.4256Z" fill="#FFB636"/>
<path d="M9.85746 11.3533L9.86211 11.3579L6.47105 14.749C5.02536 16.1948 2.68139 16.1948 1.23571 14.749C-0.209982 13.3033 -0.210013 10.9594 1.23571 9.51369L4.6268 6.1226L4.63146 6.12725C6.08521 4.83341 8.31386 4.88319 9.70771 6.27703C11.1015 7.67088 11.1513 9.89953 9.85746 11.3533Z" fill="#FF3131"/>
<path d="M3.85336 10.5232C3.59495 10.5232 3.33655 10.4246 3.13942 10.2275C2.74511 9.83316 2.74511 9.19388 3.13942 8.79957L5.46455 6.47445C5.85883 6.08013 6.49811 6.08013 6.89242 6.47445C7.28674 6.86876 7.28674 7.50804 6.89242 7.90232L4.5673 10.2275C4.37017 10.4246 4.11177 10.5232 3.85336 10.5232Z" fill="#FF9292"/>
</svg>
