<svg width="16" height="16" viewBox="0 0 16 16" fill="none" xmlns="http://www.w3.org/2000/svg">
<path opacity="0.5" d="M4.80248 9.84601C5.54873 9.51976 8.39373 9.04477 8.54123 8.10977C8.77998 6.60476 6.30748 6.49852 5.21373 6.43602C3.92373 6.36352 2.86373 5.93602 2.01123 5.14352C0.786233 4.06852 0.267483 1.45852 1.80998 0.478516C1.80998 0.478516 1.73123 1.77727 2.68248 2.27477C5.03498 3.50477 7.96498 2.20477 10.4237 3.13727C11.7975 3.64227 12.6312 5.09602 12.1587 6.50602C11.8762 7.84852 10.0362 9.07352 8.27623 9.34477C5.94123 9.70352 4.80248 9.84601 4.80248 9.84601Z" fill="#BDBDBD"/>
<path d="M14.8238 14.9877H2.27002V12.0977H14.8238C14.8238 12.0977 15.5 12.3414 15.5 13.5427C15.5 14.7439 14.8238 14.9877 14.8238 14.9877Z" fill="#EEEEEE"/>
<path d="M14.8238 14.9877H2.27002V12.0977H14.8238C14.8238 12.0977 15.5 12.3414 15.5 13.5427C15.5 14.7439 14.8238 14.9877 14.8238 14.9877Z" fill="url(#paint0_linear_25_10137)"/>
<path d="M14.8238 12.0977H11.5963C11.5963 12.0977 12.2725 12.3414 12.2725 13.5427C12.2725 14.7439 11.5963 14.9877 11.5963 14.9877H14.8238C14.8238 14.9877 15.5 14.7439 15.5 13.5427C15.5 12.3414 14.8238 12.0977 14.8238 12.0977Z" fill="#F19534"/>
<path d="M15.4463 14.0777C15.445 14.0702 15.435 14.0339 15.3738 13.9814C15.3125 13.9289 15.2388 13.8977 15.1575 13.9064C15.1325 13.9089 15.1075 13.9152 15.0888 13.9314C15.0563 13.9577 15.0475 14.0027 15.0538 14.0439C15.06 14.0839 15.1713 14.2764 15.1875 14.6839C15.2888 14.5452 15.3875 14.3502 15.4463 14.0777ZM13.27 13.6927C13.3213 13.7427 13.3725 13.7989 13.3825 13.8702C13.3938 13.9502 13.35 14.0264 13.3013 14.0902C13.2463 14.1602 13.1838 14.2239 13.1125 14.2777C13.0863 14.2977 13.0563 14.3177 13.0238 14.3164C12.96 14.3139 12.9288 14.2377 12.915 14.1752C12.8613 13.9477 12.82 13.7177 12.79 13.4852C12.7875 13.4639 12.785 13.4402 12.7988 13.4239C12.89 13.3077 13.2188 13.6439 13.27 13.6927ZM14.2825 13.4077C14.355 13.3652 14.4238 13.3152 14.4763 13.2502C14.5288 13.1839 14.5613 13.1014 14.5525 13.0177C14.55 12.9939 14.5425 12.9677 14.5225 12.9552C14.5013 12.9427 14.475 12.9489 14.4513 12.9552C14.2925 12.9989 14.1363 13.0514 13.9838 13.1139C13.9625 13.1227 13.94 13.1327 13.9238 13.1502C13.9075 13.1677 13.9 13.1927 13.8925 13.2152C13.875 13.2789 13.8663 13.3439 13.8638 13.4089C13.855 13.6752 14.1675 13.4764 14.2825 13.4077ZM13.4013 12.5827C13.395 12.6264 13.35 12.6539 13.31 12.6727C13.205 12.7189 13.09 12.7489 12.9763 12.7414C12.825 12.7327 12.4225 12.4464 12.7313 12.4127C12.8438 12.4002 13.4188 12.4539 13.4013 12.5827ZM13.8363 14.2002C13.8925 14.1602 13.9863 14.1927 14.0425 14.2352C14.2625 14.4027 14.3163 14.3402 14.4675 14.2877C14.635 14.2289 14.6225 14.3477 14.5575 14.4439C14.4838 14.5539 14.1813 14.7552 14.0138 14.7164C13.91 14.6939 13.7763 14.2439 13.8363 14.2002ZM15.5 13.4877C15.4925 13.0214 15.375 12.6852 15.2475 12.4927C15.2225 12.4964 15.1975 12.5064 15.1725 12.5227C15.1088 12.5664 14.99 12.8552 15.0038 12.9139C15.03 13.0302 15.3788 13.3627 15.5 13.4877ZM14.0063 12.3402C14.1388 12.4914 14.2375 12.3639 14.2638 12.3064C14.2938 12.2402 14.2975 12.1677 14.2863 12.0977H13.725C13.8075 12.1602 13.8913 12.2077 14.0063 12.3402ZM12.4413 14.7089C12.55 14.6327 12.71 14.6089 12.7988 14.7102C12.8825 14.8052 12.9575 14.9164 13.0525 14.9877H12.2575C12.325 14.8552 12.3925 14.7427 12.4413 14.7089Z" fill="#FFCC80"/>
<path d="M3.06998 13.1111C2.99498 13.0086 2.85623 12.9598 2.80123 12.8461C2.72998 12.6998 2.82998 12.5186 2.77498 12.3648C2.71873 12.2048 2.52873 12.1461 2.36373 12.1086C2.26123 12.0848 2.13748 12.0861 2.03748 12.1186C1.99873 12.1311 1.96123 12.1486 1.92123 12.1611C1.76123 12.2123 1.59623 12.1598 1.43248 12.1798C1.33123 12.1923 1.22748 12.2286 1.16498 12.3086C1.13123 12.3523 1.11123 12.4061 1.07748 12.4498C1.01373 12.5286 0.907483 12.5398 0.827483 12.5973C0.751233 12.6523 0.666233 12.7061 0.627483 12.7961C0.564983 12.9411 0.649983 13.1086 0.621233 13.2636C0.604983 13.3498 0.556233 13.4248 0.527483 13.5073C0.523733 13.5186 0.519983 13.5298 0.517483 13.5411C0.481233 13.6773 0.502483 13.8286 0.576233 13.9486C0.643733 14.0561 0.749983 14.1398 0.792483 14.2598C0.829983 14.3661 0.789983 14.4823 0.828733 14.5873C0.863733 14.6823 0.964983 14.7336 1.05998 14.7498C1.24998 14.7811 1.43623 14.8086 1.62373 14.8623C1.73123 14.8936 1.83248 14.9448 1.93748 14.9811C2.15998 15.0586 2.44623 15.0173 2.65498 14.9098C2.73873 14.8661 2.80873 14.7848 2.81123 14.6911C2.81248 14.6636 2.80748 14.6348 2.81623 14.6086C2.82623 14.5773 2.85248 14.5561 2.87373 14.5311C2.94748 14.4398 2.93623 14.3061 2.90998 14.1911C2.88373 14.0761 2.84748 13.9548 2.88498 13.8436C2.90748 13.7748 2.95498 13.7186 2.99623 13.6586C3.05373 13.5786 3.10123 13.4898 3.12123 13.3936C3.12373 13.3823 3.12498 13.3711 3.12623 13.3586C3.13748 13.2723 3.12123 13.1811 3.06998 13.1111Z" fill="#607D8B"/>
<path d="M0.967488 14.3936C0.996238 14.6174 1.46249 14.7511 1.41874 14.4386C1.39124 14.2499 1.27749 14.2149 1.22249 14.1061C1.17624 14.0399 1.16124 13.9874 1.20749 13.9186C1.26624 13.7974 1.30749 13.6174 1.21249 13.5224C1.02749 13.3524 0.739988 13.5549 0.849988 13.7861C0.896238 13.8849 1.05749 13.9049 1.09499 14.0086C1.14624 14.1586 0.928738 14.2336 0.967488 14.3936ZM1.78999 12.5549C1.83124 12.6549 1.79874 12.8074 1.82874 12.8999C1.88624 13.0799 2.08124 13.0499 2.17249 13.3111C2.22874 13.4724 2.25374 13.7211 2.07374 13.9024C2.01749 13.9586 1.92249 13.9811 1.88249 13.9486C1.76624 13.8624 1.76499 13.7286 1.80624 13.5424C1.81499 13.5036 1.78749 13.5011 1.77624 13.4861C1.69124 13.4374 1.62374 13.3649 1.64124 13.2599C1.66749 13.1024 1.81749 13.0349 1.77249 12.9011C1.74374 12.8136 1.68499 12.7524 1.57999 12.7561C1.50249 12.7586 1.51499 12.8274 1.41124 12.8736C1.33874 12.9061 1.24124 12.7936 1.16499 12.8236C1.08874 12.8536 1.17374 13.1049 1.00999 13.1724C0.947488 13.1986 0.884988 13.1361 0.857488 13.0799C0.811238 12.9924 0.841238 12.8386 0.934988 12.7886C1.01374 12.7449 1.07999 12.8199 1.15624 12.7699C1.23249 12.7199 1.21499 12.5061 1.31124 12.4174C1.50249 12.2624 1.72624 12.3499 1.78999 12.5549Z" fill="#F44336"/>
<path opacity="0.5" d="M2.03999 9.97123C2.91874 8.83748 4.37374 8.52373 5.66374 8.08123C6.13749 7.91873 6.91874 7.62873 6.79874 7.11748C6.62249 6.36498 5.16374 6.46373 4.59249 6.36248C3.24874 6.12498 2.06749 5.51748 1.37374 4.34248C0.79749 3.43873 0.42499 1.38998 1.80999 0.47998C1.80999 0.47998 0.94249 1.72623 2.65749 3.31873C4.57499 5.09998 7.76374 3.78998 9.93124 5.18998C12.5212 7.01373 10.225 9.04248 7.88249 9.40498C6.82874 9.56873 5.77124 9.70748 4.71999 9.85873C3.35499 10.0537 2.29999 10.3487 1.53374 11.5687C1.46124 10.99 1.67749 10.4337 2.03999 9.97123Z" fill="#BDBDBD"/>
<path d="M2.48374 12.2452C2.58624 12.3002 2.68499 12.4027 2.66499 12.5164C2.65624 12.5689 2.62374 12.6127 2.60374 12.6627C2.55374 12.7864 2.59249 12.9402 2.69374 13.0264C2.78249 13.1002 2.91374 13.1314 2.96124 13.2364C3.00749 13.3377 2.94874 13.4564 2.87374 13.5402C2.77499 13.6514 2.61374 13.7789 2.62374 13.9439C2.62874 14.0252 2.66499 14.1002 2.70749 14.1689C2.72749 14.2002 2.74874 14.2314 2.75874 14.2677C2.76874 14.3039 2.76624 14.3452 2.74124 14.3727C2.72124 14.3939 2.69124 14.4027 2.66624 14.4189C2.60499 14.4602 2.58874 14.5427 2.58624 14.6164C2.58374 14.6852 2.59749 14.8164 2.54874 14.8727C2.50749 14.9214 2.28624 14.9877 2.22374 14.9877C2.38624 14.9877 2.69499 15.0539 2.77624 14.8639C2.79249 14.8264 2.79624 14.7852 2.81249 14.7489C2.85499 14.6489 2.96749 14.6014 3.04749 14.5289C3.12249 14.4602 3.17124 14.3627 3.18249 14.2614C3.18999 14.1889 3.17874 14.1152 3.18124 14.0414C3.18624 13.8377 3.34499 13.8152 3.46249 13.6802C3.51874 13.6164 3.55124 13.5339 3.55999 13.4489C3.56749 13.3852 3.56249 13.3202 3.54499 13.2577C3.50499 13.1139 3.40624 12.9914 3.28874 12.9002C3.17624 12.8127 3.02999 12.7302 3.01874 12.5877C3.01499 12.5427 3.02749 12.4977 3.02999 12.4514C3.03999 12.2389 2.82249 12.1977 2.69249 12.1439C2.56249 12.0902 2.21124 12.0964 2.21124 12.0964C2.28999 12.1627 2.39249 12.1964 2.48374 12.2452Z" fill="#424242"/>
<path d="M14.8238 12.0977H11.5963C11.5963 12.0977 12.2725 12.3414 12.2725 13.5427C12.2725 14.7439 11.5963 14.9877 11.5963 14.9877H14.8238C14.8238 14.9877 15.5 14.7439 15.5 13.5427C15.5 12.3414 14.8238 12.0977 14.8238 12.0977Z" fill="url(#paint1_linear_25_10137)"/>
<defs>
<linearGradient id="paint0_linear_25_10137" x1="8.88502" y1="15.8233" x2="8.88502" y2="14.0319" gradientUnits="userSpaceOnUse">
<stop stop-color="#BDBDBD"/>
<stop offset="1" stop-color="#BDBDBD" stop-opacity="0"/>
</linearGradient>
<linearGradient id="paint1_linear_25_10137" x1="13.5484" y1="15.8233" x2="13.5484" y2="14.0319" gradientUnits="userSpaceOnUse">
<stop stop-color="#A15D38"/>
<stop offset="1" stop-color="#A15D38" stop-opacity="0"/>
</linearGradient>
</defs>
</svg>
