<svg width="24" height="24" viewBox="0 0 24 24" fill="none" xmlns="http://www.w3.org/2000/svg">
<path d="M2.627 8.492C2.423 8.95 2.25 9.47 2.25 10C2.25 10.1989 2.32902 10.3897 2.46967 10.5303C2.61032 10.671 2.80109 10.75 3 10.75C3.19891 10.75 3.38968 10.671 3.53033 10.5303C3.67098 10.3897 3.75 10.1989 3.75 10C3.75 9.78 3.827 9.487 3.998 9.102C4.19651 8.68211 4.41441 8.27167 4.651 7.872L4.662 7.853C4.905 7.428 5.17 6.964 5.373 6.508C5.577 6.05 5.75 5.53 5.75 5C5.75 4.80109 5.67098 4.61032 5.53033 4.46967C5.38968 4.32902 5.19891 4.25 5 4.25C4.80109 4.25 4.61032 4.32902 4.46967 4.46967C4.32902 4.61032 4.25 4.80109 4.25 5C4.25 5.22 4.173 5.513 4.002 5.898C3.80349 6.31789 3.58559 6.72833 3.349 7.128L3.338 7.147C3.095 7.572 2.83 8.036 2.627 8.492ZM6.127 8.492C5.923 8.95 5.75 9.47 5.75 10C5.75 10.1989 5.82902 10.3897 5.96967 10.5303C6.11032 10.671 6.30109 10.75 6.5 10.75C6.69891 10.75 6.88968 10.671 7.03033 10.5303C7.17098 10.3897 7.25 10.1989 7.25 10C7.25 9.78 7.327 9.487 7.498 9.102C7.69651 8.68211 7.91441 8.27167 8.151 7.872L8.162 7.853C8.405 7.428 8.67 6.964 8.873 6.508C9.077 6.05 9.25 5.53 9.25 5C9.25 4.80109 9.17098 4.61032 9.03033 4.46967C8.88968 4.32902 8.69891 4.25 8.5 4.25C8.30109 4.25 8.11032 4.32902 7.96967 4.46967C7.82902 4.61032 7.75 4.80109 7.75 5C7.75 5.22 7.673 5.513 7.502 5.898C7.30349 6.31789 7.08559 6.72833 6.849 7.128L6.838 7.147C6.595 7.572 6.33 8.036 6.127 8.492ZM9.627 8.492C9.423 8.95 9.25 9.47 9.25 10C9.25 10.1989 9.32902 10.3897 9.46967 10.5303C9.61032 10.671 9.80109 10.75 10 10.75C10.1989 10.75 10.3897 10.671 10.5303 10.5303C10.671 10.3897 10.75 10.1989 10.75 10C10.75 9.78 10.827 9.487 10.998 9.102C11.1965 8.68211 11.4144 8.27167 11.651 7.872L11.662 7.853C11.905 7.428 12.17 6.964 12.373 6.508C12.577 6.05 12.75 5.53 12.75 5C12.75 4.80109 12.671 4.61032 12.5303 4.46967C12.3897 4.32902 12.1989 4.25 12 4.25C11.8011 4.25 11.6103 4.32902 11.4697 4.46967C11.329 4.61032 11.25 4.80109 11.25 5C11.25 5.22 11.173 5.513 11.002 5.898C10.8035 6.31789 10.5856 6.72833 10.349 7.128L10.338 7.147C10.095 7.572 9.83 8.036 9.627 8.492ZM20 17.75C20.4641 17.75 20.9092 17.5656 21.2374 17.2374C21.5656 16.9092 21.75 16.4641 21.75 16V14C21.75 13.5359 21.5656 13.0908 21.2374 12.7626C20.9092 12.4344 20.4641 12.25 20 12.25H4C3.53587 12.25 3.09075 12.4344 2.76256 12.7626C2.43437 13.0908 2.25 13.5359 2.25 14V16C2.25 16.966 3.034 17.75 4 17.75H20ZM20.25 14V16C20.25 16.0663 20.2237 16.1299 20.1768 16.1768C20.1299 16.2237 20.0663 16.25 20 16.25H16.75V13.75H20C20.0663 13.75 20.1299 13.7763 20.1768 13.8232C20.2237 13.8701 20.25 13.9337 20.25 14Z" fill="white" fill-opacity="1"/>
</svg>
