<svg width="36" height="36" viewBox="0 0 36 36" fill="none" xmlns="http://www.w3.org/2000/svg">
<path d="M5.44379 3.71145C9.25745 1.50914 14.0283 2.82808 17.9135 5.88723C18.844 5.15259 19.8093 4.52967 20.7895 4.03078C23.954 2.42024 27.4711 2.02728 30.3871 3.71145C33.3039 5.39547 34.7223 8.63744 34.9096 12.1831C35.0977 15.7458 34.075 19.8243 31.8803 23.6255C29.6856 27.4268 26.6644 30.351 23.4848 31.9693C21.042 33.2125 18.3898 33.7284 15.9653 33.1255C15.8348 33.1445 15.7006 33.1484 15.5649 33.1314L15.4145 33.105L15.0141 33.0054C10.8771 31.902 6.73155 28.4432 3.95063 23.6245C1.75623 19.8235 0.733303 15.7455 0.921329 12.1831C1.10857 8.63731 2.52706 5.39544 5.44379 3.71145ZM28.8871 6.3091C27.1413 5.30079 24.757 5.37822 22.1508 6.70461C19.5598 8.0233 16.94 10.5025 14.9926 13.8755C13.0452 17.2485 12.2075 20.7567 12.3608 23.6597C12.5151 26.5794 13.6405 28.6825 15.3871 29.6909C17.1339 30.6993 19.5185 30.6218 22.1245 29.2954C24.7152 27.9767 27.3353 25.4983 29.2827 22.1255C31.23 18.7526 32.0668 15.2442 31.9135 12.3413C31.7689 9.60415 30.771 7.58411 29.2075 6.51125L28.8871 6.3091ZM15.6723 7.9468C12.4087 5.51856 9.13937 5.04117 6.94379 6.3091C5.19702 7.31761 4.07162 9.4214 3.91742 12.3413C3.77379 15.0629 4.50062 18.3164 6.19672 21.4917L6.54926 22.1255L6.79438 22.5386C7.66925 23.9811 8.66399 25.2447 9.71918 26.313C9.52697 25.5107 9.40988 24.6732 9.36469 23.8179C9.17656 20.2553 10.1994 16.1768 12.394 12.3755C13.3488 10.7217 14.4596 9.23343 15.6723 7.9468Z" fill="var(--icons-color)"/>
</svg>
