<svg width="36" height="36" viewBox="0 0 36 36" fill="none" xmlns="http://www.w3.org/2000/svg">
<path d="M8.736 5.44805L18 14.712L27.216 5.49605C27.4196 5.27937 27.6648 5.10604 27.937 4.98644C28.2092 4.86684 28.5027 4.80344 28.8 4.80005C29.4365 4.80005 30.047 5.05291 30.4971 5.50299C30.9471 5.95308 31.2 6.56353 31.2 7.20005C31.2056 7.49429 31.151 7.78658 31.0396 8.05896C30.9281 8.33135 30.7622 8.57809 30.552 8.78405L21.216 18L30.552 27.3361C30.9476 27.723 31.1795 28.2471 31.2 28.8C31.2 29.4366 30.9471 30.047 30.4971 30.4971C30.047 30.9472 29.4365 31.2 28.8 31.2C28.4941 31.2127 28.189 31.1617 27.9039 31.0501C27.6188 30.9386 27.36 30.769 27.144 30.552L18 21.288L8.76 30.5281C8.55721 30.7375 8.31495 30.9047 8.0472 31.0201C7.77945 31.1354 7.49151 31.1966 7.2 31.2C6.56348 31.2 5.95303 30.9472 5.50294 30.4971C5.05285 30.047 4.8 29.4366 4.8 28.8C4.7944 28.5058 4.84899 28.2135 4.96042 27.9411C5.07186 27.6687 5.23777 27.422 5.448 27.2161L14.784 18L5.448 8.66405C5.05244 8.27707 4.82049 7.75304 4.8 7.20005C4.8 6.56353 5.05285 5.95308 5.50294 5.50299C5.95303 5.05291 6.56348 4.80005 7.2 4.80005C7.776 4.80725 8.328 5.04005 8.736 5.44805Z" fill="var(--icons-color)" />
</svg>
