<svg width="36" height="37" viewBox="0 0 36 37" fill="none" xmlns="http://www.w3.org/2000/svg">
<path d="M18 0C18.4774 0 18.9352 0.189642 19.2728 0.527208C19.6104 0.864773 19.8 1.32261 19.8 1.8V3.6H22.5C26.0804 3.6 29.5142 5.02232 32.0459 7.55406C34.5777 10.0858 36 13.5196 36 17.1C36 20.6804 34.5777 24.1142 32.0459 26.6459C29.5142 29.1777 26.0804 30.6 22.5 30.6H13.5C9.91958 30.6 6.4858 29.1777 3.95406 26.6459C1.42232 24.1142 0 20.6804 0 17.1C0 13.5196 1.42232 10.0858 3.95406 7.55406C6.4858 5.02232 9.91958 3.6 13.5 3.6H16.2V1.8C16.2 1.32261 16.3896 0.864773 16.7272 0.527208C17.0648 0.189642 17.5226 0 18 0ZM22.5 7.2H13.5C10.8744 7.2 8.35625 8.24303 6.49964 10.0996C4.64303 11.9563 3.6 14.4744 3.6 17.1C3.6 19.7256 4.64303 22.2437 6.49964 24.1004C8.35625 25.957 10.8744 27 13.5 27H22.5C25.1256 27 27.6437 25.957 29.5004 24.1004C31.357 22.2437 32.4 19.7256 32.4 17.1C32.4 14.4744 31.357 11.9563 29.5004 10.0996C27.6437 8.24303 25.1256 7.2 22.5 7.2ZM24.3 12.6C24.7409 12.6001 25.1664 12.7619 25.4959 13.0549C25.8253 13.3479 26.0358 13.7515 26.0874 14.1894L26.1 14.4V15.3H27C27.4588 15.3005 27.9001 15.4762 28.2337 15.7911C28.5673 16.1061 28.768 16.5365 28.7949 16.9945C28.8218 17.4525 28.6728 17.9035 28.3783 18.2553C28.0839 18.6071 27.6662 18.8332 27.2106 18.8874L27 18.9H26.1V19.8C26.0995 20.2588 25.9238 20.7001 25.6089 21.0337C25.2939 21.3673 24.8635 21.568 24.4055 21.5949C23.9475 21.6218 23.4965 21.4728 23.1447 21.1783C22.7929 20.8839 22.5668 20.4662 22.5126 20.0106L22.5 19.8V18.9H21.6C21.1412 18.8995 20.6999 18.7238 20.3663 18.4089C20.0327 18.0939 19.832 17.6635 19.8051 17.2055C19.7782 16.7475 19.9272 16.2965 20.2217 15.9447C20.5161 15.5929 20.9338 15.3668 21.3894 15.3126L21.6 15.3H22.5V14.4C22.5 13.9226 22.6896 13.4648 23.0272 13.1272C23.3648 12.7896 23.8226 12.6 24.3 12.6ZM11.7 12.6C12.8935 12.6 14.0381 13.0741 14.882 13.918C15.7259 14.7619 16.2 15.9065 16.2 17.1C16.2 18.2935 15.7259 19.4381 14.882 20.282C14.0381 21.1259 12.8935 21.6 11.7 21.6C10.5065 21.6 9.36193 21.1259 8.51802 20.282C7.67411 19.4381 7.2 18.2935 7.2 17.1C7.2 15.9065 7.67411 14.7619 8.51802 13.918C9.36193 13.0741 10.5065 12.6 11.7 12.6ZM11.7 16.2C11.4613 16.2 11.2324 16.2948 11.0636 16.4636C10.8948 16.6324 10.8 16.8613 10.8 17.1C10.8 17.3387 10.8948 17.5676 11.0636 17.7364C11.2324 17.9052 11.4613 18 11.7 18C11.9387 18 12.1676 17.9052 12.3364 17.7364C12.5052 17.5676 12.6 17.3387 12.6 17.1C12.6 16.8613 12.5052 16.6324 12.3364 16.4636C12.1676 16.2948 11.9387 16.2 11.7 16.2Z" fill="var(--icons-color)"/>
</svg>
